%TF.GenerationSoftware,KiCad,Pcbnew,(6.0.2)*%
%TF.CreationDate,2022-05-29T08:20:39+05:30*%
%TF.ProjectId,AIO,41494f2e-6b69-4636-9164-5f7063625858,rev?*%
%TF.SameCoordinates,Original*%
%TF.FileFunction,Legend,Top*%
%TF.FilePolarity,Positive*%
%FSLAX46Y46*%
G04 Gerber Fmt 4.6, Leading zero omitted, Abs format (unit mm)*
G04 Created by KiCad (PCBNEW (6.0.2)) date 2022-05-29 08:20:39*
%MOMM*%
%LPD*%
G01*
G04 APERTURE LIST*
%ADD10C,0.150000*%
%ADD11C,0.125000*%
%ADD12C,0.100000*%
%ADD13C,0.500000*%
%ADD14C,0.400000*%
%ADD15C,0.200000*%
%ADD16C,0.300000*%
%ADD17C,0.120000*%
G04 APERTURE END LIST*
D10*
X118600000Y-124975000D02*
X118600000Y-125550000D01*
X119600000Y-116850000D02*
X121050000Y-116850000D01*
X145700000Y-83500000D02*
X145700000Y-84500000D01*
X111825000Y-124000000D02*
X111400000Y-124000000D01*
X122725000Y-125325000D02*
X122500000Y-125525000D01*
X114400000Y-125350000D02*
X114825000Y-125350000D01*
X111625000Y-123800000D02*
X111825000Y-124000000D01*
X118450000Y-124025000D02*
X118675000Y-123825000D01*
X169125000Y-83300000D02*
X169125000Y-84300000D01*
X127350000Y-97000000D02*
G75*
G03*
X127350000Y-97000000I-100000J0D01*
G01*
X118600000Y-125550000D02*
X118400000Y-125350000D01*
X123500000Y-132020000D02*
X123500000Y-133020000D01*
X118875000Y-124025000D02*
X118450000Y-124025000D01*
X118675000Y-123825000D02*
X118875000Y-124025000D01*
X110900000Y-125325000D02*
X110675000Y-125525000D01*
X110675000Y-124950000D02*
X110675000Y-125525000D01*
X118675000Y-124400000D02*
X118350000Y-124400000D01*
X111625000Y-124375000D02*
X111300000Y-124375000D01*
X114600000Y-124975000D02*
X114275000Y-124975000D01*
X127950000Y-112175000D02*
G75*
G03*
X127950000Y-112175000I-100000J0D01*
G01*
X122500000Y-125525000D02*
X122300000Y-125325000D01*
X159500000Y-112350000D02*
G75*
G03*
X159500000Y-112350000I-100000J0D01*
G01*
X114600000Y-125550000D02*
X114400000Y-125350000D01*
X118600000Y-124975000D02*
X118275000Y-124975000D01*
X111625000Y-124375000D02*
X111625000Y-123800000D01*
X157000000Y-84000000D02*
X158000000Y-84000000D01*
X115200000Y-124400000D02*
X115200000Y-123825000D01*
X118400000Y-125350000D02*
X118825000Y-125350000D01*
X168725000Y-83800000D02*
X169525000Y-83800000D01*
X145300000Y-84000000D02*
X146100000Y-84000000D01*
X119600000Y-119475000D02*
X121075000Y-119475000D01*
X114975000Y-124025000D02*
X115200000Y-123825000D01*
X114825000Y-125350000D02*
X114600000Y-125550000D01*
X118825000Y-125350000D02*
X118600000Y-125550000D01*
X122500000Y-124950000D02*
X122500000Y-125525000D01*
X122500000Y-124950000D02*
X122175000Y-124950000D01*
X115200000Y-123825000D02*
X115400000Y-124025000D01*
X115200000Y-124400000D02*
X114875000Y-124400000D01*
X123012500Y-130000000D02*
X123925000Y-130000000D01*
X111400000Y-124000000D02*
X111625000Y-123800000D01*
X122300000Y-125325000D02*
X122725000Y-125325000D01*
X123050000Y-132575000D02*
X123925000Y-132575000D01*
X110675000Y-124950000D02*
X110350000Y-124950000D01*
X118675000Y-124400000D02*
X118675000Y-123825000D01*
X110475000Y-125325000D02*
X110900000Y-125325000D01*
X110675000Y-125525000D02*
X110475000Y-125325000D01*
X159350000Y-96925000D02*
G75*
G03*
X159350000Y-96925000I-100000J0D01*
G01*
X120318750Y-116127500D02*
X120331250Y-117552500D01*
X114600000Y-124975000D02*
X114600000Y-125550000D01*
X115400000Y-124025000D02*
X114975000Y-124025000D01*
X133471428Y-86685714D02*
X133471428Y-85923809D01*
X133852380Y-86304761D02*
X133090476Y-86304761D01*
X132852380Y-84971428D02*
X132852380Y-85447619D01*
X133328571Y-85495238D01*
X133280952Y-85447619D01*
X133233333Y-85352380D01*
X133233333Y-85114285D01*
X133280952Y-85019047D01*
X133328571Y-84971428D01*
X133423809Y-84923809D01*
X133661904Y-84923809D01*
X133757142Y-84971428D01*
X133804761Y-85019047D01*
X133852380Y-85114285D01*
X133852380Y-85352380D01*
X133804761Y-85447619D01*
X133757142Y-85495238D01*
X132852380Y-84638095D02*
X133852380Y-84304761D01*
X132852380Y-83971428D01*
X104061904Y-113666666D02*
X104538095Y-113666666D01*
X103966666Y-113952380D02*
X104300000Y-112952380D01*
X104633333Y-113952380D01*
D11*
X176076190Y-107734761D02*
X175576190Y-107734761D01*
X175576190Y-107615714D01*
X175600000Y-107544285D01*
X175647619Y-107496666D01*
X175695238Y-107472857D01*
X175790476Y-107449047D01*
X175861904Y-107449047D01*
X175957142Y-107472857D01*
X176004761Y-107496666D01*
X176052380Y-107544285D01*
X176076190Y-107615714D01*
X176076190Y-107734761D01*
X176123809Y-107353809D02*
X176123809Y-106972857D01*
X176052380Y-106877619D02*
X176076190Y-106806190D01*
X176076190Y-106687142D01*
X176052380Y-106639523D01*
X176028571Y-106615714D01*
X175980952Y-106591904D01*
X175933333Y-106591904D01*
X175885714Y-106615714D01*
X175861904Y-106639523D01*
X175838095Y-106687142D01*
X175814285Y-106782380D01*
X175790476Y-106830000D01*
X175766666Y-106853809D01*
X175719047Y-106877619D01*
X175671428Y-106877619D01*
X175623809Y-106853809D01*
X175600000Y-106830000D01*
X175576190Y-106782380D01*
X175576190Y-106663333D01*
X175600000Y-106591904D01*
X175576190Y-106449047D02*
X175576190Y-106163333D01*
X176076190Y-106306190D02*
X175576190Y-106306190D01*
X175933333Y-106020476D02*
X175933333Y-105782380D01*
X176076190Y-106068095D02*
X175576190Y-105901428D01*
X176076190Y-105734761D01*
X175576190Y-105639523D02*
X175576190Y-105353809D01*
X176076190Y-105496666D02*
X175576190Y-105496666D01*
D10*
X193214285Y-114271428D02*
X193976190Y-114271428D01*
X193595238Y-114652380D02*
X193595238Y-113890476D01*
X194928571Y-113652380D02*
X194452380Y-113652380D01*
X194404761Y-114128571D01*
X194452380Y-114080952D01*
X194547619Y-114033333D01*
X194785714Y-114033333D01*
X194880952Y-114080952D01*
X194928571Y-114128571D01*
X194976190Y-114223809D01*
X194976190Y-114461904D01*
X194928571Y-114557142D01*
X194880952Y-114604761D01*
X194785714Y-114652380D01*
X194547619Y-114652380D01*
X194452380Y-114604761D01*
X194404761Y-114557142D01*
X195261904Y-113652380D02*
X195595238Y-114652380D01*
X195928571Y-113652380D01*
X193838095Y-121500000D02*
X193742857Y-121452380D01*
X193600000Y-121452380D01*
X193457142Y-121500000D01*
X193361904Y-121595238D01*
X193314285Y-121690476D01*
X193266666Y-121880952D01*
X193266666Y-122023809D01*
X193314285Y-122214285D01*
X193361904Y-122309523D01*
X193457142Y-122404761D01*
X193600000Y-122452380D01*
X193695238Y-122452380D01*
X193838095Y-122404761D01*
X193885714Y-122357142D01*
X193885714Y-122023809D01*
X193695238Y-122023809D01*
X194314285Y-122452380D02*
X194314285Y-121452380D01*
X194885714Y-122452380D01*
X194885714Y-121452380D01*
X195361904Y-122452380D02*
X195361904Y-121452380D01*
X195600000Y-121452380D01*
X195742857Y-121500000D01*
X195838095Y-121595238D01*
X195885714Y-121690476D01*
X195933333Y-121880952D01*
X195933333Y-122023809D01*
X195885714Y-122214285D01*
X195838095Y-122309523D01*
X195742857Y-122404761D01*
X195600000Y-122452380D01*
X195361904Y-122452380D01*
D12*
X133233333Y-108602380D02*
X133304761Y-108626190D01*
X133423809Y-108626190D01*
X133471428Y-108602380D01*
X133495238Y-108578571D01*
X133519047Y-108530952D01*
X133519047Y-108483333D01*
X133495238Y-108435714D01*
X133471428Y-108411904D01*
X133423809Y-108388095D01*
X133328571Y-108364285D01*
X133280952Y-108340476D01*
X133257142Y-108316666D01*
X133233333Y-108269047D01*
X133233333Y-108221428D01*
X133257142Y-108173809D01*
X133280952Y-108150000D01*
X133328571Y-108126190D01*
X133447619Y-108126190D01*
X133519047Y-108150000D01*
X133614285Y-108673809D02*
X133995238Y-108673809D01*
X134090476Y-108602380D02*
X134161904Y-108626190D01*
X134280952Y-108626190D01*
X134328571Y-108602380D01*
X134352380Y-108578571D01*
X134376190Y-108530952D01*
X134376190Y-108483333D01*
X134352380Y-108435714D01*
X134328571Y-108411904D01*
X134280952Y-108388095D01*
X134185714Y-108364285D01*
X134138095Y-108340476D01*
X134114285Y-108316666D01*
X134090476Y-108269047D01*
X134090476Y-108221428D01*
X134114285Y-108173809D01*
X134138095Y-108150000D01*
X134185714Y-108126190D01*
X134304761Y-108126190D01*
X134376190Y-108150000D01*
X134519047Y-108126190D02*
X134804761Y-108126190D01*
X134661904Y-108626190D02*
X134661904Y-108126190D01*
X134947619Y-108483333D02*
X135185714Y-108483333D01*
X134900000Y-108626190D02*
X135066666Y-108126190D01*
X135233333Y-108626190D01*
X135328571Y-108126190D02*
X135614285Y-108126190D01*
X135471428Y-108626190D02*
X135471428Y-108126190D01*
D13*
X143701190Y-127275000D02*
X147272619Y-127275000D01*
X143939285Y-128941666D02*
X147034523Y-128941666D01*
X141320238Y-129417857D02*
X143463095Y-129417857D01*
X146082142Y-132036904D02*
X147510714Y-132036904D01*
X142748809Y-129179761D02*
X142748809Y-132036904D01*
X145605952Y-126322619D02*
X145605952Y-127275000D01*
X146320238Y-129417857D02*
X146320238Y-132036904D01*
X147510714Y-131322619D02*
X147510714Y-132036904D01*
X146320238Y-127989285D02*
X147272619Y-128941666D01*
X141558333Y-127513095D02*
X142272619Y-128465476D01*
X141558333Y-129417857D01*
X143225000Y-130132142D02*
X143701190Y-130846428D01*
X143225000Y-128465476D02*
X143463095Y-129655952D01*
X142272619Y-126322619D02*
X141796428Y-127751190D01*
X142986904Y-127036904D02*
X142510714Y-128465476D01*
X145129761Y-127275000D02*
X144415476Y-128941666D01*
X141796428Y-130132142D02*
X141320238Y-131322619D01*
X144891666Y-129655952D02*
X144653571Y-131322619D01*
X143939285Y-132036904D01*
X150129761Y-128465476D02*
X153463095Y-128465476D01*
X149891666Y-131798809D02*
X153701190Y-131798809D01*
X149891666Y-129655952D02*
X149891666Y-132036904D01*
X149891666Y-129655952D02*
X153701190Y-129655952D01*
X153701190Y-132036904D01*
X151796428Y-126322619D02*
X153463095Y-127989285D01*
X154891666Y-128703571D01*
X151796428Y-126322619D02*
X149891666Y-128227380D01*
X148701190Y-128703571D01*
D10*
X103809523Y-92504761D02*
X103952380Y-92552380D01*
X104190476Y-92552380D01*
X104285714Y-92504761D01*
X104333333Y-92457142D01*
X104380952Y-92361904D01*
X104380952Y-92266666D01*
X104333333Y-92171428D01*
X104285714Y-92123809D01*
X104190476Y-92076190D01*
X104000000Y-92028571D01*
X103904761Y-91980952D01*
X103857142Y-91933333D01*
X103809523Y-91838095D01*
X103809523Y-91742857D01*
X103857142Y-91647619D01*
X103904761Y-91600000D01*
X104000000Y-91552380D01*
X104238095Y-91552380D01*
X104380952Y-91600000D01*
X105380952Y-92457142D02*
X105333333Y-92504761D01*
X105190476Y-92552380D01*
X105095238Y-92552380D01*
X104952380Y-92504761D01*
X104857142Y-92409523D01*
X104809523Y-92314285D01*
X104761904Y-92123809D01*
X104761904Y-91980952D01*
X104809523Y-91790476D01*
X104857142Y-91695238D01*
X104952380Y-91600000D01*
X105095238Y-91552380D01*
X105190476Y-91552380D01*
X105333333Y-91600000D01*
X105380952Y-91647619D01*
X106285714Y-92552380D02*
X105809523Y-92552380D01*
X105809523Y-91552380D01*
X195314285Y-104047619D02*
X195361904Y-104000000D01*
X195457142Y-103952380D01*
X195695238Y-103952380D01*
X195790476Y-104000000D01*
X195838095Y-104047619D01*
X195885714Y-104142857D01*
X195885714Y-104238095D01*
X195838095Y-104380952D01*
X195266666Y-104952380D01*
X195885714Y-104952380D01*
X104238095Y-94100000D02*
X104142857Y-94052380D01*
X104000000Y-94052380D01*
X103857142Y-94100000D01*
X103761904Y-94195238D01*
X103714285Y-94290476D01*
X103666666Y-94480952D01*
X103666666Y-94623809D01*
X103714285Y-94814285D01*
X103761904Y-94909523D01*
X103857142Y-95004761D01*
X104000000Y-95052380D01*
X104095238Y-95052380D01*
X104238095Y-95004761D01*
X104285714Y-94957142D01*
X104285714Y-94623809D01*
X104095238Y-94623809D01*
X104714285Y-95052380D02*
X104714285Y-94052380D01*
X105285714Y-95052380D01*
X105285714Y-94052380D01*
X105761904Y-95052380D02*
X105761904Y-94052380D01*
X106000000Y-94052380D01*
X106142857Y-94100000D01*
X106238095Y-94195238D01*
X106285714Y-94290476D01*
X106333333Y-94480952D01*
X106333333Y-94623809D01*
X106285714Y-94814285D01*
X106238095Y-94909523D01*
X106142857Y-95004761D01*
X106000000Y-95052380D01*
X105761904Y-95052380D01*
X121002380Y-125408333D02*
X121002380Y-124741666D01*
X122002380Y-125170238D01*
X104635714Y-116477380D02*
X104064285Y-116477380D01*
X104350000Y-116477380D02*
X104350000Y-115477380D01*
X104254761Y-115620238D01*
X104159523Y-115715476D01*
X104064285Y-115763095D01*
X112977380Y-124836904D02*
X112977380Y-125313095D01*
X113453571Y-125360714D01*
X113405952Y-125313095D01*
X113358333Y-125217857D01*
X113358333Y-124979761D01*
X113405952Y-124884523D01*
X113453571Y-124836904D01*
X113548809Y-124789285D01*
X113786904Y-124789285D01*
X113882142Y-124836904D01*
X113929761Y-124884523D01*
X113977380Y-124979761D01*
X113977380Y-125217857D01*
X113929761Y-125313095D01*
X113882142Y-125360714D01*
D14*
X177859523Y-133714285D02*
X177859523Y-131485714D01*
X181859523Y-132599999D02*
X177859523Y-132599999D01*
X177859523Y-130185714D02*
X181097619Y-130185714D01*
X181478571Y-129999999D01*
X181669047Y-129814285D01*
X181859523Y-129442857D01*
X181859523Y-128699999D01*
X181669047Y-128328571D01*
X181478571Y-128142857D01*
X181097619Y-127957142D01*
X177859523Y-127957142D01*
X181859523Y-123871428D02*
X179954761Y-125171428D01*
X181859523Y-126099999D02*
X177859523Y-126099999D01*
X177859523Y-124614285D01*
X178050000Y-124242857D01*
X178240476Y-124057142D01*
X178621428Y-123871428D01*
X179192857Y-123871428D01*
X179573809Y-124057142D01*
X179764285Y-124242857D01*
X179954761Y-124614285D01*
X179954761Y-126099999D01*
X181859523Y-122199999D02*
X177859523Y-122199999D01*
X177859523Y-121271428D01*
X178050000Y-120714285D01*
X178430952Y-120342857D01*
X178811904Y-120157142D01*
X179573809Y-119971428D01*
X180145238Y-119971428D01*
X180907142Y-120157142D01*
X181288095Y-120342857D01*
X181669047Y-120714285D01*
X181859523Y-121271428D01*
X181859523Y-122199999D01*
X181669047Y-118485714D02*
X181859523Y-117928571D01*
X181859523Y-117000000D01*
X181669047Y-116628571D01*
X181478571Y-116442857D01*
X181097619Y-116257142D01*
X180716666Y-116257142D01*
X180335714Y-116442857D01*
X180145238Y-116628571D01*
X179954761Y-117000000D01*
X179764285Y-117742857D01*
X179573809Y-118114285D01*
X179383333Y-118299999D01*
X179002380Y-118485714D01*
X178621428Y-118485714D01*
X178240476Y-118299999D01*
X178050000Y-118114285D01*
X177859523Y-117742857D01*
X177859523Y-116814285D01*
X178050000Y-116257142D01*
X181859523Y-112728571D02*
X181859523Y-114585714D01*
X177859523Y-114585714D01*
X180716666Y-111614285D02*
X180716666Y-109757142D01*
X181859523Y-111985714D02*
X177859523Y-110685714D01*
X181859523Y-109385714D01*
D10*
X195366666Y-101352380D02*
X195985714Y-101352380D01*
X195652380Y-101733333D01*
X195795238Y-101733333D01*
X195890476Y-101780952D01*
X195938095Y-101828571D01*
X195985714Y-101923809D01*
X195985714Y-102161904D01*
X195938095Y-102257142D01*
X195890476Y-102304761D01*
X195795238Y-102352380D01*
X195509523Y-102352380D01*
X195414285Y-102304761D01*
X195366666Y-102257142D01*
X111514285Y-99871428D02*
X112276190Y-99871428D01*
X111895238Y-100252380D02*
X111895238Y-99490476D01*
X113228571Y-99252380D02*
X112752380Y-99252380D01*
X112704761Y-99728571D01*
X112752380Y-99680952D01*
X112847619Y-99633333D01*
X113085714Y-99633333D01*
X113180952Y-99680952D01*
X113228571Y-99728571D01*
X113276190Y-99823809D01*
X113276190Y-100061904D01*
X113228571Y-100157142D01*
X113180952Y-100204761D01*
X113085714Y-100252380D01*
X112847619Y-100252380D01*
X112752380Y-100204761D01*
X112704761Y-100157142D01*
X113561904Y-99252380D02*
X113895238Y-100252380D01*
X114228571Y-99252380D01*
D15*
X184983333Y-114097142D02*
X185269047Y-114192380D01*
X185364285Y-114287619D01*
X185459523Y-114478095D01*
X185459523Y-114763809D01*
X185364285Y-114954285D01*
X185269047Y-115049523D01*
X185078571Y-115144761D01*
X184316666Y-115144761D01*
X184316666Y-113144761D01*
X184983333Y-113144761D01*
X185173809Y-113240000D01*
X185269047Y-113335238D01*
X185364285Y-113525714D01*
X185364285Y-113716190D01*
X185269047Y-113906666D01*
X185173809Y-114001904D01*
X184983333Y-114097142D01*
X184316666Y-114097142D01*
X186316666Y-114097142D02*
X186983333Y-114097142D01*
X187269047Y-115144761D02*
X186316666Y-115144761D01*
X186316666Y-113144761D01*
X187269047Y-113144761D01*
X188126190Y-114097142D02*
X188792857Y-114097142D01*
X189078571Y-115144761D02*
X188126190Y-115144761D01*
X188126190Y-113144761D01*
X189078571Y-113144761D01*
X189935714Y-115144761D02*
X189935714Y-113144761D01*
X190697619Y-113144761D01*
X190888095Y-113240000D01*
X190983333Y-113335238D01*
X191078571Y-113525714D01*
X191078571Y-113811428D01*
X190983333Y-114001904D01*
X190888095Y-114097142D01*
X190697619Y-114192380D01*
X189935714Y-114192380D01*
X184697619Y-117317142D02*
X184983333Y-117412380D01*
X185078571Y-117507619D01*
X185173809Y-117698095D01*
X185173809Y-117983809D01*
X185078571Y-118174285D01*
X184983333Y-118269523D01*
X184792857Y-118364761D01*
X184030952Y-118364761D01*
X184030952Y-116364761D01*
X184697619Y-116364761D01*
X184888095Y-116460000D01*
X184983333Y-116555238D01*
X185078571Y-116745714D01*
X185078571Y-116936190D01*
X184983333Y-117126666D01*
X184888095Y-117221904D01*
X184697619Y-117317142D01*
X184030952Y-117317142D01*
X186411904Y-116364761D02*
X186792857Y-116364761D01*
X186983333Y-116460000D01*
X187173809Y-116650476D01*
X187269047Y-117031428D01*
X187269047Y-117698095D01*
X187173809Y-118079047D01*
X186983333Y-118269523D01*
X186792857Y-118364761D01*
X186411904Y-118364761D01*
X186221428Y-118269523D01*
X186030952Y-118079047D01*
X185935714Y-117698095D01*
X185935714Y-117031428D01*
X186030952Y-116650476D01*
X186221428Y-116460000D01*
X186411904Y-116364761D01*
X188507142Y-116364761D02*
X188888095Y-116364761D01*
X189078571Y-116460000D01*
X189269047Y-116650476D01*
X189364285Y-117031428D01*
X189364285Y-117698095D01*
X189269047Y-118079047D01*
X189078571Y-118269523D01*
X188888095Y-118364761D01*
X188507142Y-118364761D01*
X188316666Y-118269523D01*
X188126190Y-118079047D01*
X188030952Y-117698095D01*
X188030952Y-117031428D01*
X188126190Y-116650476D01*
X188316666Y-116460000D01*
X188507142Y-116364761D01*
X190221428Y-118364761D02*
X190221428Y-116364761D01*
X190983333Y-116364761D01*
X191173809Y-116460000D01*
X191269047Y-116555238D01*
X191364285Y-116745714D01*
X191364285Y-117031428D01*
X191269047Y-117221904D01*
X191173809Y-117317142D01*
X190983333Y-117412380D01*
X190221428Y-117412380D01*
D10*
X104540476Y-123510714D02*
X104540476Y-124177380D01*
X104302380Y-123129761D02*
X104064285Y-123844047D01*
X104683333Y-123844047D01*
X103916666Y-120677380D02*
X104535714Y-120677380D01*
X104202380Y-121058333D01*
X104345238Y-121058333D01*
X104440476Y-121105952D01*
X104488095Y-121153571D01*
X104535714Y-121248809D01*
X104535714Y-121486904D01*
X104488095Y-121582142D01*
X104440476Y-121629761D01*
X104345238Y-121677380D01*
X104059523Y-121677380D01*
X103964285Y-121629761D01*
X103916666Y-121582142D01*
X111509523Y-102904761D02*
X111652380Y-102952380D01*
X111890476Y-102952380D01*
X111985714Y-102904761D01*
X112033333Y-102857142D01*
X112080952Y-102761904D01*
X112080952Y-102666666D01*
X112033333Y-102571428D01*
X111985714Y-102523809D01*
X111890476Y-102476190D01*
X111700000Y-102428571D01*
X111604761Y-102380952D01*
X111557142Y-102333333D01*
X111509523Y-102238095D01*
X111509523Y-102142857D01*
X111557142Y-102047619D01*
X111604761Y-102000000D01*
X111700000Y-101952380D01*
X111938095Y-101952380D01*
X112080952Y-102000000D01*
X113080952Y-102857142D02*
X113033333Y-102904761D01*
X112890476Y-102952380D01*
X112795238Y-102952380D01*
X112652380Y-102904761D01*
X112557142Y-102809523D01*
X112509523Y-102714285D01*
X112461904Y-102523809D01*
X112461904Y-102380952D01*
X112509523Y-102190476D01*
X112557142Y-102095238D01*
X112652380Y-102000000D01*
X112795238Y-101952380D01*
X112890476Y-101952380D01*
X113033333Y-102000000D01*
X113080952Y-102047619D01*
X113985714Y-102952380D02*
X113509523Y-102952380D01*
X113509523Y-101952380D01*
X144052380Y-84014285D02*
X144052380Y-84585714D01*
X144052380Y-84300000D02*
X143052380Y-84300000D01*
X143195238Y-84395238D01*
X143290476Y-84490476D01*
X143338095Y-84585714D01*
X111585714Y-105504761D02*
X111728571Y-105552380D01*
X111966666Y-105552380D01*
X112061904Y-105504761D01*
X112109523Y-105457142D01*
X112157142Y-105361904D01*
X112157142Y-105266666D01*
X112109523Y-105171428D01*
X112061904Y-105123809D01*
X111966666Y-105076190D01*
X111776190Y-105028571D01*
X111680952Y-104980952D01*
X111633333Y-104933333D01*
X111585714Y-104838095D01*
X111585714Y-104742857D01*
X111633333Y-104647619D01*
X111680952Y-104600000D01*
X111776190Y-104552380D01*
X112014285Y-104552380D01*
X112157142Y-104600000D01*
X112585714Y-105552380D02*
X112585714Y-104552380D01*
X112823809Y-104552380D01*
X112966666Y-104600000D01*
X113061904Y-104695238D01*
X113109523Y-104790476D01*
X113157142Y-104980952D01*
X113157142Y-105123809D01*
X113109523Y-105314285D01*
X113061904Y-105409523D01*
X112966666Y-105504761D01*
X112823809Y-105552380D01*
X112585714Y-105552380D01*
X113538095Y-105266666D02*
X114014285Y-105266666D01*
X113442857Y-105552380D02*
X113776190Y-104552380D01*
X114109523Y-105552380D01*
D12*
X144686904Y-97832142D02*
X144686904Y-98022619D01*
X144401190Y-98355952D02*
X144401190Y-98022619D01*
X144972619Y-98022619D01*
X144925000Y-98308333D01*
X144877380Y-98451190D01*
X144782142Y-98641666D01*
X144686904Y-98784523D01*
X144496428Y-98879761D01*
X144972619Y-97879761D02*
X145067857Y-97975000D01*
X145115476Y-97832142D02*
X145210714Y-97927380D01*
X145305952Y-98308333D02*
X146544047Y-98308333D01*
X145925000Y-97784523D02*
X145925000Y-98927380D01*
X146877380Y-97927380D02*
X147925000Y-97927380D01*
X146782142Y-98927380D02*
X148020238Y-98927380D01*
X146925000Y-98355952D02*
X147782142Y-98355952D01*
X147782142Y-98927380D01*
X147305952Y-97975000D02*
X147115476Y-98927380D01*
X148496428Y-98594047D02*
X148591666Y-98594047D01*
X148686904Y-98689285D01*
X148686904Y-98784523D01*
X148591666Y-98879761D01*
X148496428Y-98879761D01*
X148401190Y-98784523D01*
X148401190Y-98689285D01*
X148496428Y-98594047D01*
X149448809Y-97879761D02*
X150401190Y-97879761D01*
X149496428Y-98117857D02*
X149782142Y-98117857D01*
X150067857Y-98117857D02*
X150353571Y-98117857D01*
X149448809Y-98260714D02*
X149782142Y-98260714D01*
X150067857Y-98260714D02*
X150401190Y-98260714D01*
X150115476Y-98879761D02*
X150353571Y-98879761D01*
X149353571Y-98022619D02*
X149353571Y-98165476D01*
X149829761Y-98641666D02*
X149829761Y-98927380D01*
X149925000Y-97879761D02*
X149925000Y-98213095D01*
X149448809Y-98641666D02*
X150353571Y-98641666D01*
X150353571Y-98832142D01*
X149353571Y-98022619D02*
X150496428Y-98022619D01*
X150496428Y-98165476D01*
X149925000Y-98308333D02*
X150448809Y-98546428D01*
X149925000Y-98308333D02*
X149401190Y-98546428D01*
X149734523Y-98498809D02*
X150115476Y-98498809D01*
D10*
X141752380Y-118161904D02*
X141752380Y-117590476D01*
X142752380Y-117876190D02*
X141752380Y-117876190D01*
X141752380Y-117352380D02*
X142752380Y-116685714D01*
X141752380Y-116685714D02*
X142752380Y-117352380D01*
X128853571Y-123903571D02*
X128520238Y-123903571D01*
X128520238Y-124427380D02*
X128520238Y-123427380D01*
X128996428Y-123427380D01*
X129234523Y-123427380D02*
X129805952Y-123427380D01*
X129520238Y-124427380D02*
X129520238Y-123427380D01*
X130091666Y-123522619D02*
X130139285Y-123475000D01*
X130234523Y-123427380D01*
X130472619Y-123427380D01*
X130567857Y-123475000D01*
X130615476Y-123522619D01*
X130663095Y-123617857D01*
X130663095Y-123713095D01*
X130615476Y-123855952D01*
X130044047Y-124427380D01*
X130663095Y-124427380D01*
X130996428Y-123427380D02*
X131615476Y-123427380D01*
X131282142Y-123808333D01*
X131425000Y-123808333D01*
X131520238Y-123855952D01*
X131567857Y-123903571D01*
X131615476Y-123998809D01*
X131615476Y-124236904D01*
X131567857Y-124332142D01*
X131520238Y-124379761D01*
X131425000Y-124427380D01*
X131139285Y-124427380D01*
X131044047Y-124379761D01*
X130996428Y-124332142D01*
X131996428Y-123522619D02*
X132044047Y-123475000D01*
X132139285Y-123427380D01*
X132377380Y-123427380D01*
X132472619Y-123475000D01*
X132520238Y-123522619D01*
X132567857Y-123617857D01*
X132567857Y-123713095D01*
X132520238Y-123855952D01*
X131948809Y-124427380D01*
X132567857Y-124427380D01*
X133567857Y-124427380D02*
X133234523Y-123951190D01*
X132996428Y-124427380D02*
X132996428Y-123427380D01*
X133377380Y-123427380D01*
X133472619Y-123475000D01*
X133520238Y-123522619D01*
X133567857Y-123617857D01*
X133567857Y-123760714D01*
X133520238Y-123855952D01*
X133472619Y-123903571D01*
X133377380Y-123951190D01*
X132996428Y-123951190D01*
X134472619Y-124427380D02*
X133996428Y-124427380D01*
X133996428Y-123427380D01*
X153952380Y-123352380D02*
X153476190Y-123685714D01*
X153952380Y-123923809D02*
X152952380Y-123923809D01*
X152952380Y-123542857D01*
X153000000Y-123447619D01*
X153047619Y-123400000D01*
X153142857Y-123352380D01*
X153285714Y-123352380D01*
X153380952Y-123400000D01*
X153428571Y-123447619D01*
X153476190Y-123542857D01*
X153476190Y-123923809D01*
X153428571Y-122923809D02*
X153428571Y-122590476D01*
X153952380Y-122447619D02*
X153952380Y-122923809D01*
X152952380Y-122923809D01*
X152952380Y-122447619D01*
X153904761Y-122066666D02*
X153952380Y-121923809D01*
X153952380Y-121685714D01*
X153904761Y-121590476D01*
X153857142Y-121542857D01*
X153761904Y-121495238D01*
X153666666Y-121495238D01*
X153571428Y-121542857D01*
X153523809Y-121590476D01*
X153476190Y-121685714D01*
X153428571Y-121876190D01*
X153380952Y-121971428D01*
X153333333Y-122019047D01*
X153238095Y-122066666D01*
X153142857Y-122066666D01*
X153047619Y-122019047D01*
X153000000Y-121971428D01*
X152952380Y-121876190D01*
X152952380Y-121638095D01*
X153000000Y-121495238D01*
X153428571Y-121066666D02*
X153428571Y-120733333D01*
X153952380Y-120590476D02*
X153952380Y-121066666D01*
X152952380Y-121066666D01*
X152952380Y-120590476D01*
X152952380Y-120304761D02*
X152952380Y-119733333D01*
X153952380Y-120019047D02*
X152952380Y-120019047D01*
X130400000Y-86061904D02*
X130352380Y-86157142D01*
X130352380Y-86300000D01*
X130400000Y-86442857D01*
X130495238Y-86538095D01*
X130590476Y-86585714D01*
X130780952Y-86633333D01*
X130923809Y-86633333D01*
X131114285Y-86585714D01*
X131209523Y-86538095D01*
X131304761Y-86442857D01*
X131352380Y-86300000D01*
X131352380Y-86204761D01*
X131304761Y-86061904D01*
X131257142Y-86014285D01*
X130923809Y-86014285D01*
X130923809Y-86204761D01*
X131352380Y-85585714D02*
X130352380Y-85585714D01*
X131352380Y-85014285D01*
X130352380Y-85014285D01*
X131352380Y-84538095D02*
X130352380Y-84538095D01*
X130352380Y-84300000D01*
X130400000Y-84157142D01*
X130495238Y-84061904D01*
X130590476Y-84014285D01*
X130780952Y-83966666D01*
X130923809Y-83966666D01*
X131114285Y-84014285D01*
X131209523Y-84061904D01*
X131304761Y-84157142D01*
X131352380Y-84300000D01*
X131352380Y-84538095D01*
X103685714Y-89904761D02*
X103828571Y-89952380D01*
X104066666Y-89952380D01*
X104161904Y-89904761D01*
X104209523Y-89857142D01*
X104257142Y-89761904D01*
X104257142Y-89666666D01*
X104209523Y-89571428D01*
X104161904Y-89523809D01*
X104066666Y-89476190D01*
X103876190Y-89428571D01*
X103780952Y-89380952D01*
X103733333Y-89333333D01*
X103685714Y-89238095D01*
X103685714Y-89142857D01*
X103733333Y-89047619D01*
X103780952Y-89000000D01*
X103876190Y-88952380D01*
X104114285Y-88952380D01*
X104257142Y-89000000D01*
X104685714Y-89952380D02*
X104685714Y-88952380D01*
X104923809Y-88952380D01*
X105066666Y-89000000D01*
X105161904Y-89095238D01*
X105209523Y-89190476D01*
X105257142Y-89380952D01*
X105257142Y-89523809D01*
X105209523Y-89714285D01*
X105161904Y-89809523D01*
X105066666Y-89904761D01*
X104923809Y-89952380D01*
X104685714Y-89952380D01*
X105638095Y-89666666D02*
X106114285Y-89666666D01*
X105542857Y-89952380D02*
X105876190Y-88952380D01*
X106209523Y-89952380D01*
X191554761Y-92373809D02*
X191602380Y-92230952D01*
X191602380Y-91992857D01*
X191554761Y-91897619D01*
X191507142Y-91850000D01*
X191411904Y-91802380D01*
X191316666Y-91802380D01*
X191221428Y-91850000D01*
X191173809Y-91897619D01*
X191126190Y-91992857D01*
X191078571Y-92183333D01*
X191030952Y-92278571D01*
X190983333Y-92326190D01*
X190888095Y-92373809D01*
X190792857Y-92373809D01*
X190697619Y-92326190D01*
X190650000Y-92278571D01*
X190602380Y-92183333D01*
X190602380Y-91945238D01*
X190650000Y-91802380D01*
X191602380Y-91373809D02*
X190602380Y-91373809D01*
X190650000Y-90373809D02*
X190602380Y-90469047D01*
X190602380Y-90611904D01*
X190650000Y-90754761D01*
X190745238Y-90850000D01*
X190840476Y-90897619D01*
X191030952Y-90945238D01*
X191173809Y-90945238D01*
X191364285Y-90897619D01*
X191459523Y-90850000D01*
X191554761Y-90754761D01*
X191602380Y-90611904D01*
X191602380Y-90516666D01*
X191554761Y-90373809D01*
X191507142Y-90326190D01*
X191173809Y-90326190D01*
X191173809Y-90516666D01*
X193076190Y-116252380D02*
X193647619Y-116252380D01*
X193361904Y-117252380D02*
X193361904Y-116252380D01*
X194552380Y-117252380D02*
X194219047Y-116776190D01*
X193980952Y-117252380D02*
X193980952Y-116252380D01*
X194361904Y-116252380D01*
X194457142Y-116300000D01*
X194504761Y-116347619D01*
X194552380Y-116442857D01*
X194552380Y-116585714D01*
X194504761Y-116680952D01*
X194457142Y-116728571D01*
X194361904Y-116776190D01*
X193980952Y-116776190D01*
X194980952Y-117252380D02*
X194980952Y-116252380D01*
X195980952Y-116300000D02*
X195885714Y-116252380D01*
X195742857Y-116252380D01*
X195600000Y-116300000D01*
X195504761Y-116395238D01*
X195457142Y-116490476D01*
X195409523Y-116680952D01*
X195409523Y-116823809D01*
X195457142Y-117014285D01*
X195504761Y-117109523D01*
X195600000Y-117204761D01*
X195742857Y-117252380D01*
X195838095Y-117252380D01*
X195980952Y-117204761D01*
X196028571Y-117157142D01*
X196028571Y-116823809D01*
X195838095Y-116823809D01*
X144480952Y-92103571D02*
X144623809Y-92151190D01*
X144671428Y-92198809D01*
X144719047Y-92294047D01*
X144719047Y-92436904D01*
X144671428Y-92532142D01*
X144623809Y-92579761D01*
X144528571Y-92627380D01*
X144147619Y-92627380D01*
X144147619Y-91627380D01*
X144480952Y-91627380D01*
X144576190Y-91675000D01*
X144623809Y-91722619D01*
X144671428Y-91817857D01*
X144671428Y-91913095D01*
X144623809Y-92008333D01*
X144576190Y-92055952D01*
X144480952Y-92103571D01*
X144147619Y-92103571D01*
X145100000Y-92341666D02*
X145576190Y-92341666D01*
X145004761Y-92627380D02*
X145338095Y-91627380D01*
X145671428Y-92627380D01*
X145861904Y-91627380D02*
X146433333Y-91627380D01*
X146147619Y-92627380D02*
X146147619Y-91627380D01*
X146623809Y-91627380D02*
X147195238Y-91627380D01*
X146909523Y-92627380D02*
X146909523Y-91627380D01*
X160503571Y-123903571D02*
X160170238Y-123903571D01*
X160170238Y-124427380D02*
X160170238Y-123427380D01*
X160646428Y-123427380D01*
X160884523Y-123427380D02*
X161455952Y-123427380D01*
X161170238Y-124427380D02*
X161170238Y-123427380D01*
X161741666Y-123522619D02*
X161789285Y-123475000D01*
X161884523Y-123427380D01*
X162122619Y-123427380D01*
X162217857Y-123475000D01*
X162265476Y-123522619D01*
X162313095Y-123617857D01*
X162313095Y-123713095D01*
X162265476Y-123855952D01*
X161694047Y-124427380D01*
X162313095Y-124427380D01*
X162646428Y-123427380D02*
X163265476Y-123427380D01*
X162932142Y-123808333D01*
X163075000Y-123808333D01*
X163170238Y-123855952D01*
X163217857Y-123903571D01*
X163265476Y-123998809D01*
X163265476Y-124236904D01*
X163217857Y-124332142D01*
X163170238Y-124379761D01*
X163075000Y-124427380D01*
X162789285Y-124427380D01*
X162694047Y-124379761D01*
X162646428Y-124332142D01*
X163646428Y-123522619D02*
X163694047Y-123475000D01*
X163789285Y-123427380D01*
X164027380Y-123427380D01*
X164122619Y-123475000D01*
X164170238Y-123522619D01*
X164217857Y-123617857D01*
X164217857Y-123713095D01*
X164170238Y-123855952D01*
X163598809Y-124427380D01*
X164217857Y-124427380D01*
X165217857Y-124427380D02*
X164884523Y-123951190D01*
X164646428Y-124427380D02*
X164646428Y-123427380D01*
X165027380Y-123427380D01*
X165122619Y-123475000D01*
X165170238Y-123522619D01*
X165217857Y-123617857D01*
X165217857Y-123760714D01*
X165170238Y-123855952D01*
X165122619Y-123903571D01*
X165027380Y-123951190D01*
X164646428Y-123951190D01*
X166122619Y-124427380D02*
X165646428Y-124427380D01*
X165646428Y-123427380D01*
D15*
X157878571Y-104441428D02*
X156378571Y-104441428D01*
X156378571Y-104084285D01*
X156450000Y-103870000D01*
X156592857Y-103727142D01*
X156735714Y-103655714D01*
X157021428Y-103584285D01*
X157235714Y-103584285D01*
X157521428Y-103655714D01*
X157664285Y-103727142D01*
X157807142Y-103870000D01*
X157878571Y-104084285D01*
X157878571Y-104441428D01*
X157878571Y-102084285D02*
X157164285Y-102584285D01*
X157878571Y-102941428D02*
X156378571Y-102941428D01*
X156378571Y-102370000D01*
X156450000Y-102227142D01*
X156521428Y-102155714D01*
X156664285Y-102084285D01*
X156878571Y-102084285D01*
X157021428Y-102155714D01*
X157092857Y-102227142D01*
X157164285Y-102370000D01*
X157164285Y-102941428D01*
X157878571Y-101441428D02*
X156378571Y-101441428D01*
X156378571Y-100941428D02*
X157878571Y-100441428D01*
X156378571Y-99941428D01*
X157092857Y-99441428D02*
X157092857Y-98941428D01*
X157878571Y-98727142D02*
X157878571Y-99441428D01*
X156378571Y-99441428D01*
X156378571Y-98727142D01*
X157878571Y-97227142D02*
X157164285Y-97727142D01*
X157878571Y-98084285D02*
X156378571Y-98084285D01*
X156378571Y-97512857D01*
X156450000Y-97370000D01*
X156521428Y-97298571D01*
X156664285Y-97227142D01*
X156878571Y-97227142D01*
X157021428Y-97298571D01*
X157092857Y-97370000D01*
X157164285Y-97512857D01*
X157164285Y-98084285D01*
D10*
X175752380Y-116691666D02*
X175276190Y-117025000D01*
X175752380Y-117263095D02*
X174752380Y-117263095D01*
X174752380Y-116882142D01*
X174800000Y-116786904D01*
X174847619Y-116739285D01*
X174942857Y-116691666D01*
X175085714Y-116691666D01*
X175180952Y-116739285D01*
X175228571Y-116786904D01*
X175276190Y-116882142D01*
X175276190Y-117263095D01*
X174752380Y-116358333D02*
X175752380Y-115691666D01*
X174752380Y-115691666D02*
X175752380Y-116358333D01*
X179020238Y-100927380D02*
X178686904Y-100451190D01*
X178448809Y-100927380D02*
X178448809Y-99927380D01*
X178829761Y-99927380D01*
X178925000Y-99975000D01*
X178972619Y-100022619D01*
X179020238Y-100117857D01*
X179020238Y-100260714D01*
X178972619Y-100355952D01*
X178925000Y-100403571D01*
X178829761Y-100451190D01*
X178448809Y-100451190D01*
X179448809Y-100403571D02*
X179782142Y-100403571D01*
X179925000Y-100927380D02*
X179448809Y-100927380D01*
X179448809Y-99927380D01*
X179925000Y-99927380D01*
X180829761Y-100927380D02*
X180353571Y-100927380D01*
X180353571Y-99927380D01*
X181115476Y-100641666D02*
X181591666Y-100641666D01*
X181020238Y-100927380D02*
X181353571Y-99927380D01*
X181686904Y-100927380D01*
X182210714Y-100451190D02*
X182210714Y-100927380D01*
X181877380Y-99927380D02*
X182210714Y-100451190D01*
X182544047Y-99927380D01*
X104371428Y-126228571D02*
X104514285Y-126276190D01*
X104561904Y-126323809D01*
X104609523Y-126419047D01*
X104609523Y-126561904D01*
X104561904Y-126657142D01*
X104514285Y-126704761D01*
X104419047Y-126752380D01*
X104038095Y-126752380D01*
X104038095Y-125752380D01*
X104371428Y-125752380D01*
X104466666Y-125800000D01*
X104514285Y-125847619D01*
X104561904Y-125942857D01*
X104561904Y-126038095D01*
X104514285Y-126133333D01*
X104466666Y-126180952D01*
X104371428Y-126228571D01*
X104038095Y-126228571D01*
X137852380Y-84533333D02*
X137852380Y-83914285D01*
X138233333Y-84247619D01*
X138233333Y-84104761D01*
X138280952Y-84009523D01*
X138328571Y-83961904D01*
X138423809Y-83914285D01*
X138661904Y-83914285D01*
X138757142Y-83961904D01*
X138804761Y-84009523D01*
X138852380Y-84104761D01*
X138852380Y-84390476D01*
X138804761Y-84485714D01*
X138757142Y-84533333D01*
D12*
X186135532Y-104673307D02*
X185882994Y-104925845D01*
X185815650Y-104959517D01*
X185748307Y-104959517D01*
X185680963Y-104925845D01*
X185647292Y-104892173D01*
X186118696Y-105363578D02*
X185950337Y-105195219D01*
X186303891Y-104841666D01*
X186472250Y-105649788D02*
X186438578Y-105649788D01*
X186371234Y-105616116D01*
X186337563Y-105582444D01*
X186303891Y-105515101D01*
X186303891Y-105447757D01*
X186320727Y-105397250D01*
X186371234Y-105313070D01*
X186421742Y-105262563D01*
X186505921Y-105212055D01*
X186556429Y-105195219D01*
X186623773Y-105195219D01*
X186691116Y-105228891D01*
X186724788Y-105262563D01*
X186758460Y-105329906D01*
X186758460Y-105363578D01*
X187044669Y-105582444D02*
X186792131Y-105834982D01*
X186724788Y-105868654D01*
X186657444Y-105868654D01*
X186590101Y-105834982D01*
X186556429Y-105801311D01*
X187027834Y-106272715D02*
X186859475Y-106104356D01*
X187213028Y-105750803D01*
X187381387Y-106558925D02*
X187347715Y-106558925D01*
X187280372Y-106525253D01*
X187246700Y-106491582D01*
X187213028Y-106424238D01*
X187213028Y-106356895D01*
X187229864Y-106306387D01*
X187280372Y-106222208D01*
X187330879Y-106171700D01*
X187415059Y-106121192D01*
X187465566Y-106104356D01*
X187532910Y-106104356D01*
X187600253Y-106138028D01*
X187633925Y-106171700D01*
X187667597Y-106239043D01*
X187667597Y-106272715D01*
X187953807Y-106491582D02*
X187701269Y-106744120D01*
X187633925Y-106777791D01*
X187566582Y-106777791D01*
X187499238Y-106744120D01*
X187465566Y-106710448D01*
X187936971Y-107181852D02*
X187768612Y-107013494D01*
X188122165Y-106659940D01*
X188290524Y-107468062D02*
X188256852Y-107468062D01*
X188189509Y-107434391D01*
X188155837Y-107400719D01*
X188122165Y-107333375D01*
X188122165Y-107266032D01*
X188139001Y-107215524D01*
X188189509Y-107131345D01*
X188240017Y-107080837D01*
X188324196Y-107030330D01*
X188374704Y-107013494D01*
X188442047Y-107013494D01*
X188509391Y-107047165D01*
X188543062Y-107080837D01*
X188576734Y-107148181D01*
X188576734Y-107181852D01*
X188862944Y-107400719D02*
X188610406Y-107653257D01*
X188543062Y-107686929D01*
X188475719Y-107686929D01*
X188408375Y-107653257D01*
X188374704Y-107619585D01*
X188846108Y-108090990D02*
X188677749Y-107922631D01*
X189031303Y-107569078D01*
X189199662Y-108377200D02*
X189165990Y-108377200D01*
X189098646Y-108343528D01*
X189064975Y-108309856D01*
X189031303Y-108242513D01*
X189031303Y-108175169D01*
X189048139Y-108124662D01*
X189098646Y-108040482D01*
X189149154Y-107989975D01*
X189233333Y-107939467D01*
X189283841Y-107922631D01*
X189351184Y-107922631D01*
X189418528Y-107956303D01*
X189452200Y-107989975D01*
X189485871Y-108057318D01*
X189485871Y-108090990D01*
D10*
X112138095Y-107300000D02*
X112042857Y-107252380D01*
X111900000Y-107252380D01*
X111757142Y-107300000D01*
X111661904Y-107395238D01*
X111614285Y-107490476D01*
X111566666Y-107680952D01*
X111566666Y-107823809D01*
X111614285Y-108014285D01*
X111661904Y-108109523D01*
X111757142Y-108204761D01*
X111900000Y-108252380D01*
X111995238Y-108252380D01*
X112138095Y-108204761D01*
X112185714Y-108157142D01*
X112185714Y-107823809D01*
X111995238Y-107823809D01*
X112614285Y-108252380D02*
X112614285Y-107252380D01*
X113185714Y-108252380D01*
X113185714Y-107252380D01*
X113661904Y-108252380D02*
X113661904Y-107252380D01*
X113900000Y-107252380D01*
X114042857Y-107300000D01*
X114138095Y-107395238D01*
X114185714Y-107490476D01*
X114233333Y-107680952D01*
X114233333Y-107823809D01*
X114185714Y-108014285D01*
X114138095Y-108109523D01*
X114042857Y-108204761D01*
X113900000Y-108252380D01*
X113661904Y-108252380D01*
D15*
X183204761Y-133517857D02*
X185204761Y-132851190D01*
X183204761Y-132184523D01*
X185204761Y-130470238D02*
X185204761Y-131613095D01*
X185204761Y-131041666D02*
X183204761Y-131041666D01*
X183490476Y-131232142D01*
X183680952Y-131422619D01*
X183776190Y-131613095D01*
X183204761Y-128660714D02*
X183204761Y-129613095D01*
X184157142Y-129708333D01*
X184061904Y-129613095D01*
X183966666Y-129422619D01*
X183966666Y-128946428D01*
X184061904Y-128755952D01*
X184157142Y-128660714D01*
X184347619Y-128565476D01*
X184823809Y-128565476D01*
X185014285Y-128660714D01*
X185109523Y-128755952D01*
X185204761Y-128946428D01*
X185204761Y-129422619D01*
X185109523Y-129613095D01*
X185014285Y-129708333D01*
X185014285Y-127708333D02*
X185109523Y-127613095D01*
X185204761Y-127708333D01*
X185109523Y-127803571D01*
X185014285Y-127708333D01*
X185204761Y-127708333D01*
X183204761Y-126375000D02*
X183204761Y-126184523D01*
X183300000Y-125994047D01*
X183395238Y-125898809D01*
X183585714Y-125803571D01*
X183966666Y-125708333D01*
X184442857Y-125708333D01*
X184823809Y-125803571D01*
X185014285Y-125898809D01*
X185109523Y-125994047D01*
X185204761Y-126184523D01*
X185204761Y-126375000D01*
X185109523Y-126565476D01*
X185014285Y-126660714D01*
X184823809Y-126755952D01*
X184442857Y-126851190D01*
X183966666Y-126851190D01*
X183585714Y-126755952D01*
X183395238Y-126660714D01*
X183300000Y-126565476D01*
X183204761Y-126375000D01*
X184633333Y-123422619D02*
X184633333Y-122470238D01*
X185204761Y-123613095D02*
X183204761Y-122946428D01*
X185204761Y-122279761D01*
X185204761Y-121613095D02*
X183204761Y-121613095D01*
X183204761Y-120279761D02*
X183204761Y-119898809D01*
X183300000Y-119708333D01*
X183490476Y-119517857D01*
X183871428Y-119422619D01*
X184538095Y-119422619D01*
X184919047Y-119517857D01*
X185109523Y-119708333D01*
X185204761Y-119898809D01*
X185204761Y-120279761D01*
X185109523Y-120470238D01*
X184919047Y-120660714D01*
X184538095Y-120755952D01*
X183871428Y-120755952D01*
X183490476Y-120660714D01*
X183300000Y-120470238D01*
X183204761Y-120279761D01*
D10*
X140547619Y-84585714D02*
X140500000Y-84538095D01*
X140452380Y-84442857D01*
X140452380Y-84204761D01*
X140500000Y-84109523D01*
X140547619Y-84061904D01*
X140642857Y-84014285D01*
X140738095Y-84014285D01*
X140880952Y-84061904D01*
X141452380Y-84633333D01*
X141452380Y-84014285D01*
D16*
X126257142Y-86798095D02*
X126352380Y-86512380D01*
X126447619Y-86417142D01*
X126638095Y-86321904D01*
X126923809Y-86321904D01*
X127114285Y-86417142D01*
X127209523Y-86512380D01*
X127304761Y-86702857D01*
X127304761Y-87464761D01*
X125304761Y-87464761D01*
X125304761Y-86798095D01*
X125400000Y-86607619D01*
X125495238Y-86512380D01*
X125685714Y-86417142D01*
X125876190Y-86417142D01*
X126066666Y-86512380D01*
X126161904Y-86607619D01*
X126257142Y-86798095D01*
X126257142Y-87464761D01*
X126733333Y-85560000D02*
X126733333Y-84607619D01*
X127304761Y-85750476D02*
X125304761Y-85083809D01*
X127304761Y-84417142D01*
X125304761Y-84036190D02*
X125304761Y-82893333D01*
X127304761Y-83464761D02*
X125304761Y-83464761D01*
X125304761Y-82512380D02*
X125304761Y-81369523D01*
X127304761Y-81940952D02*
X125304761Y-81940952D01*
D15*
X138732142Y-106157142D02*
X138803571Y-105942857D01*
X138803571Y-105585714D01*
X138732142Y-105442857D01*
X138660714Y-105371428D01*
X138517857Y-105300000D01*
X138375000Y-105300000D01*
X138232142Y-105371428D01*
X138160714Y-105442857D01*
X138089285Y-105585714D01*
X138017857Y-105871428D01*
X137946428Y-106014285D01*
X137875000Y-106085714D01*
X137732142Y-106157142D01*
X137589285Y-106157142D01*
X137446428Y-106085714D01*
X137375000Y-106014285D01*
X137303571Y-105871428D01*
X137303571Y-105514285D01*
X137375000Y-105300000D01*
X138017857Y-104657142D02*
X138017857Y-104157142D01*
X138803571Y-103942857D02*
X138803571Y-104657142D01*
X137303571Y-104657142D01*
X137303571Y-103942857D01*
X138803571Y-103300000D02*
X137303571Y-103300000D01*
X138803571Y-102442857D01*
X137303571Y-102442857D01*
X138732142Y-101800000D02*
X138803571Y-101585714D01*
X138803571Y-101228571D01*
X138732142Y-101085714D01*
X138660714Y-101014285D01*
X138517857Y-100942857D01*
X138375000Y-100942857D01*
X138232142Y-101014285D01*
X138160714Y-101085714D01*
X138089285Y-101228571D01*
X138017857Y-101514285D01*
X137946428Y-101657142D01*
X137875000Y-101728571D01*
X137732142Y-101800000D01*
X137589285Y-101800000D01*
X137446428Y-101728571D01*
X137375000Y-101657142D01*
X137303571Y-101514285D01*
X137303571Y-101157142D01*
X137375000Y-100942857D01*
X137303571Y-100014285D02*
X137303571Y-99728571D01*
X137375000Y-99585714D01*
X137517857Y-99442857D01*
X137803571Y-99371428D01*
X138303571Y-99371428D01*
X138589285Y-99442857D01*
X138732142Y-99585714D01*
X138803571Y-99728571D01*
X138803571Y-100014285D01*
X138732142Y-100157142D01*
X138589285Y-100300000D01*
X138303571Y-100371428D01*
X137803571Y-100371428D01*
X137517857Y-100300000D01*
X137375000Y-100157142D01*
X137303571Y-100014285D01*
X138803571Y-97871428D02*
X138089285Y-98371428D01*
X138803571Y-98728571D02*
X137303571Y-98728571D01*
X137303571Y-98157142D01*
X137375000Y-98014285D01*
X137446428Y-97942857D01*
X137589285Y-97871428D01*
X137803571Y-97871428D01*
X137946428Y-97942857D01*
X138017857Y-98014285D01*
X138089285Y-98157142D01*
X138089285Y-98728571D01*
X138732142Y-97300000D02*
X138803571Y-97085714D01*
X138803571Y-96728571D01*
X138732142Y-96585714D01*
X138660714Y-96514285D01*
X138517857Y-96442857D01*
X138375000Y-96442857D01*
X138232142Y-96514285D01*
X138160714Y-96585714D01*
X138089285Y-96728571D01*
X138017857Y-97014285D01*
X137946428Y-97157142D01*
X137875000Y-97228571D01*
X137732142Y-97300000D01*
X137589285Y-97300000D01*
X137446428Y-97228571D01*
X137375000Y-97157142D01*
X137303571Y-97014285D01*
X137303571Y-96657142D01*
X137375000Y-96442857D01*
D10*
X117002380Y-124909523D02*
X117002380Y-125100000D01*
X117050000Y-125195238D01*
X117097619Y-125242857D01*
X117240476Y-125338095D01*
X117430952Y-125385714D01*
X117811904Y-125385714D01*
X117907142Y-125338095D01*
X117954761Y-125290476D01*
X118002380Y-125195238D01*
X118002380Y-125004761D01*
X117954761Y-124909523D01*
X117907142Y-124861904D01*
X117811904Y-124814285D01*
X117573809Y-124814285D01*
X117478571Y-124861904D01*
X117430952Y-124909523D01*
X117383333Y-125004761D01*
X117383333Y-125195238D01*
X117430952Y-125290476D01*
X117478571Y-125338095D01*
X117573809Y-125385714D01*
X195885714Y-107552380D02*
X195314285Y-107552380D01*
X195600000Y-107552380D02*
X195600000Y-106552380D01*
X195504761Y-106695238D01*
X195409523Y-106790476D01*
X195314285Y-106838095D01*
X195361904Y-109766666D02*
X195838095Y-109766666D01*
X195266666Y-110052380D02*
X195600000Y-109052380D01*
X195933333Y-110052380D01*
X195671428Y-96728571D02*
X195814285Y-96776190D01*
X195861904Y-96823809D01*
X195909523Y-96919047D01*
X195909523Y-97061904D01*
X195861904Y-97157142D01*
X195814285Y-97204761D01*
X195719047Y-97252380D01*
X195338095Y-97252380D01*
X195338095Y-96252380D01*
X195671428Y-96252380D01*
X195766666Y-96300000D01*
X195814285Y-96347619D01*
X195861904Y-96442857D01*
X195861904Y-96538095D01*
X195814285Y-96633333D01*
X195766666Y-96680952D01*
X195671428Y-96728571D01*
X195338095Y-96728571D01*
X117102380Y-124383333D02*
X117102380Y-123764285D01*
X117483333Y-124097619D01*
X117483333Y-123954761D01*
X117530952Y-123859523D01*
X117578571Y-123811904D01*
X117673809Y-123764285D01*
X117911904Y-123764285D01*
X118007142Y-123811904D01*
X118054761Y-123859523D01*
X118102380Y-123954761D01*
X118102380Y-124240476D01*
X118054761Y-124335714D01*
X118007142Y-124383333D01*
X195790476Y-99185714D02*
X195790476Y-99852380D01*
X195552380Y-98804761D02*
X195314285Y-99519047D01*
X195933333Y-99519047D01*
X151164285Y-92146428D02*
X151926190Y-92146428D01*
X151545238Y-92527380D02*
X151545238Y-91765476D01*
X152878571Y-91527380D02*
X152402380Y-91527380D01*
X152354761Y-92003571D01*
X152402380Y-91955952D01*
X152497619Y-91908333D01*
X152735714Y-91908333D01*
X152830952Y-91955952D01*
X152878571Y-92003571D01*
X152926190Y-92098809D01*
X152926190Y-92336904D01*
X152878571Y-92432142D01*
X152830952Y-92479761D01*
X152735714Y-92527380D01*
X152497619Y-92527380D01*
X152402380Y-92479761D01*
X152354761Y-92432142D01*
X153211904Y-91527380D02*
X153545238Y-92527380D01*
X153878571Y-91527380D01*
X104064285Y-118172619D02*
X104111904Y-118125000D01*
X104207142Y-118077380D01*
X104445238Y-118077380D01*
X104540476Y-118125000D01*
X104588095Y-118172619D01*
X104635714Y-118267857D01*
X104635714Y-118363095D01*
X104588095Y-118505952D01*
X104016666Y-119077380D01*
X104635714Y-119077380D01*
X109410714Y-125009523D02*
X110077380Y-125009523D01*
X109029761Y-125247619D02*
X109744047Y-125485714D01*
X109744047Y-124866666D01*
X192438095Y-119328571D02*
X192771428Y-119328571D01*
X192914285Y-119852380D02*
X192438095Y-119852380D01*
X192438095Y-118852380D01*
X192914285Y-118852380D01*
X193914285Y-119757142D02*
X193866666Y-119804761D01*
X193723809Y-119852380D01*
X193628571Y-119852380D01*
X193485714Y-119804761D01*
X193390476Y-119709523D01*
X193342857Y-119614285D01*
X193295238Y-119423809D01*
X193295238Y-119280952D01*
X193342857Y-119090476D01*
X193390476Y-118995238D01*
X193485714Y-118900000D01*
X193628571Y-118852380D01*
X193723809Y-118852380D01*
X193866666Y-118900000D01*
X193914285Y-118947619D01*
X194342857Y-119852380D02*
X194342857Y-118852380D01*
X194342857Y-119328571D02*
X194914285Y-119328571D01*
X194914285Y-119852380D02*
X194914285Y-118852380D01*
X195580952Y-118852380D02*
X195771428Y-118852380D01*
X195866666Y-118900000D01*
X195961904Y-118995238D01*
X196009523Y-119185714D01*
X196009523Y-119519047D01*
X195961904Y-119709523D01*
X195866666Y-119804761D01*
X195771428Y-119852380D01*
X195580952Y-119852380D01*
X195485714Y-119804761D01*
X195390476Y-119709523D01*
X195342857Y-119519047D01*
X195342857Y-119185714D01*
X195390476Y-118995238D01*
X195485714Y-118900000D01*
X195580952Y-118852380D01*
X142752380Y-114866666D02*
X142276190Y-115200000D01*
X142752380Y-115438095D02*
X141752380Y-115438095D01*
X141752380Y-115057142D01*
X141800000Y-114961904D01*
X141847619Y-114914285D01*
X141942857Y-114866666D01*
X142085714Y-114866666D01*
X142180952Y-114914285D01*
X142228571Y-114961904D01*
X142276190Y-115057142D01*
X142276190Y-115438095D01*
X141752380Y-114533333D02*
X142752380Y-113866666D01*
X141752380Y-113866666D02*
X142752380Y-114533333D01*
X111027380Y-123814285D02*
X111027380Y-124385714D01*
X111027380Y-124100000D02*
X110027380Y-124100000D01*
X110170238Y-124195238D01*
X110265476Y-124290476D01*
X110313095Y-124385714D01*
X135685714Y-84109523D02*
X136352380Y-84109523D01*
X135304761Y-84347619D02*
X136019047Y-84585714D01*
X136019047Y-83966666D01*
X113697619Y-124385714D02*
X113650000Y-124338095D01*
X113602380Y-124242857D01*
X113602380Y-124004761D01*
X113650000Y-123909523D01*
X113697619Y-123861904D01*
X113792857Y-123814285D01*
X113888095Y-123814285D01*
X114030952Y-123861904D01*
X114602380Y-124433333D01*
X114602380Y-123814285D01*
X174852380Y-120236904D02*
X174852380Y-119665476D01*
X175852380Y-119951190D02*
X174852380Y-119951190D01*
X174852380Y-119427380D02*
X175852380Y-118760714D01*
X174852380Y-118760714D02*
X175852380Y-119427380D01*
X151344047Y-97850000D02*
X152010714Y-97850000D01*
X151963095Y-97945238D01*
X151867857Y-98088095D01*
X151725000Y-98183333D01*
X151629761Y-97992857D02*
X151629761Y-98326190D01*
X151629761Y-98421428D01*
X151582142Y-98564285D01*
X151486904Y-98802380D01*
X152725000Y-98088095D02*
X152725000Y-98802380D01*
X152963095Y-97754761D02*
X152867857Y-97897619D01*
X152725000Y-98088095D01*
X152534523Y-98230952D01*
X152391666Y-98326190D01*
X153486904Y-98040476D02*
X154105952Y-98040476D01*
X153915476Y-97707142D02*
X153915476Y-98754761D01*
X153772619Y-98707142D01*
X153867857Y-98040476D02*
X153772619Y-98278571D01*
X153629761Y-98421428D01*
X153439285Y-98611904D01*
D13*
X143832142Y-95114285D02*
X144546428Y-95971428D01*
X143975000Y-93971428D02*
X143832142Y-94542857D01*
X143689285Y-95114285D01*
X143403571Y-95685714D01*
X143975000Y-94542857D02*
X144975000Y-94542857D01*
X144832142Y-95114285D01*
X144689285Y-95685714D01*
X144546428Y-96257142D01*
X144260714Y-96685714D01*
X143832142Y-97114285D01*
X146832142Y-94400000D02*
X146832142Y-95542857D01*
X146689285Y-96114285D01*
X146546428Y-96542857D01*
X146403571Y-96971428D01*
X147403571Y-94114285D02*
X147403571Y-96971428D01*
X147689285Y-96685714D01*
X147975000Y-96257142D01*
X148260714Y-95685714D01*
X149689285Y-94257142D02*
X150975000Y-94257142D01*
X150832142Y-95114285D01*
X150546428Y-95685714D01*
X150260714Y-96114285D01*
X149975000Y-96542857D01*
X149546428Y-96971428D01*
X150546428Y-95828571D02*
X150832142Y-96257142D01*
X151260714Y-96971428D01*
X152975000Y-94400000D02*
X154403571Y-94400000D01*
X152689285Y-95114285D02*
X154546428Y-95114285D01*
X154546428Y-95828571D01*
X154260714Y-96257142D01*
X153832142Y-96685714D01*
X153260714Y-97114285D01*
D10*
%TO.C,R9*%
X117183333Y-101602380D02*
X116850000Y-101126190D01*
X116611904Y-101602380D02*
X116611904Y-100602380D01*
X116992857Y-100602380D01*
X117088095Y-100650000D01*
X117135714Y-100697619D01*
X117183333Y-100792857D01*
X117183333Y-100935714D01*
X117135714Y-101030952D01*
X117088095Y-101078571D01*
X116992857Y-101126190D01*
X116611904Y-101126190D01*
X117659523Y-101602380D02*
X117850000Y-101602380D01*
X117945238Y-101554761D01*
X117992857Y-101507142D01*
X118088095Y-101364285D01*
X118135714Y-101173809D01*
X118135714Y-100792857D01*
X118088095Y-100697619D01*
X118040476Y-100650000D01*
X117945238Y-100602380D01*
X117754761Y-100602380D01*
X117659523Y-100650000D01*
X117611904Y-100697619D01*
X117564285Y-100792857D01*
X117564285Y-101030952D01*
X117611904Y-101126190D01*
X117659523Y-101173809D01*
X117754761Y-101221428D01*
X117945238Y-101221428D01*
X118040476Y-101173809D01*
X118088095Y-101126190D01*
X118135714Y-101030952D01*
%TO.C,Q2*%
X117147619Y-93595238D02*
X117100000Y-93690476D01*
X117004761Y-93785714D01*
X116861904Y-93928571D01*
X116814285Y-94023809D01*
X116814285Y-94119047D01*
X117052380Y-94071428D02*
X117004761Y-94166666D01*
X116909523Y-94261904D01*
X116719047Y-94309523D01*
X116385714Y-94309523D01*
X116195238Y-94261904D01*
X116100000Y-94166666D01*
X116052380Y-94071428D01*
X116052380Y-93880952D01*
X116100000Y-93785714D01*
X116195238Y-93690476D01*
X116385714Y-93642857D01*
X116719047Y-93642857D01*
X116909523Y-93690476D01*
X117004761Y-93785714D01*
X117052380Y-93880952D01*
X117052380Y-94071428D01*
X116147619Y-93261904D02*
X116100000Y-93214285D01*
X116052380Y-93119047D01*
X116052380Y-92880952D01*
X116100000Y-92785714D01*
X116147619Y-92738095D01*
X116242857Y-92690476D01*
X116338095Y-92690476D01*
X116480952Y-92738095D01*
X117052380Y-93309523D01*
X117052380Y-92690476D01*
%TO.C,C12*%
X117582142Y-114582142D02*
X117534523Y-114629761D01*
X117391666Y-114677380D01*
X117296428Y-114677380D01*
X117153571Y-114629761D01*
X117058333Y-114534523D01*
X117010714Y-114439285D01*
X116963095Y-114248809D01*
X116963095Y-114105952D01*
X117010714Y-113915476D01*
X117058333Y-113820238D01*
X117153571Y-113725000D01*
X117296428Y-113677380D01*
X117391666Y-113677380D01*
X117534523Y-113725000D01*
X117582142Y-113772619D01*
X118534523Y-114677380D02*
X117963095Y-114677380D01*
X118248809Y-114677380D02*
X118248809Y-113677380D01*
X118153571Y-113820238D01*
X118058333Y-113915476D01*
X117963095Y-113963095D01*
X118915476Y-113772619D02*
X118963095Y-113725000D01*
X119058333Y-113677380D01*
X119296428Y-113677380D01*
X119391666Y-113725000D01*
X119439285Y-113772619D01*
X119486904Y-113867857D01*
X119486904Y-113963095D01*
X119439285Y-114105952D01*
X118867857Y-114677380D01*
X119486904Y-114677380D01*
%TO.C,C10*%
X113107142Y-111842857D02*
X113154761Y-111890476D01*
X113202380Y-112033333D01*
X113202380Y-112128571D01*
X113154761Y-112271428D01*
X113059523Y-112366666D01*
X112964285Y-112414285D01*
X112773809Y-112461904D01*
X112630952Y-112461904D01*
X112440476Y-112414285D01*
X112345238Y-112366666D01*
X112250000Y-112271428D01*
X112202380Y-112128571D01*
X112202380Y-112033333D01*
X112250000Y-111890476D01*
X112297619Y-111842857D01*
X113202380Y-110890476D02*
X113202380Y-111461904D01*
X113202380Y-111176190D02*
X112202380Y-111176190D01*
X112345238Y-111271428D01*
X112440476Y-111366666D01*
X112488095Y-111461904D01*
X112202380Y-110271428D02*
X112202380Y-110176190D01*
X112250000Y-110080952D01*
X112297619Y-110033333D01*
X112392857Y-109985714D01*
X112583333Y-109938095D01*
X112821428Y-109938095D01*
X113011904Y-109985714D01*
X113107142Y-110033333D01*
X113154761Y-110080952D01*
X113202380Y-110176190D01*
X113202380Y-110271428D01*
X113154761Y-110366666D01*
X113107142Y-110414285D01*
X113011904Y-110461904D01*
X112821428Y-110509523D01*
X112583333Y-110509523D01*
X112392857Y-110461904D01*
X112297619Y-110414285D01*
X112250000Y-110366666D01*
X112202380Y-110271428D01*
%TO.C,R21*%
X108877380Y-97617857D02*
X108401190Y-97951190D01*
X108877380Y-98189285D02*
X107877380Y-98189285D01*
X107877380Y-97808333D01*
X107925000Y-97713095D01*
X107972619Y-97665476D01*
X108067857Y-97617857D01*
X108210714Y-97617857D01*
X108305952Y-97665476D01*
X108353571Y-97713095D01*
X108401190Y-97808333D01*
X108401190Y-98189285D01*
X107972619Y-97236904D02*
X107925000Y-97189285D01*
X107877380Y-97094047D01*
X107877380Y-96855952D01*
X107925000Y-96760714D01*
X107972619Y-96713095D01*
X108067857Y-96665476D01*
X108163095Y-96665476D01*
X108305952Y-96713095D01*
X108877380Y-97284523D01*
X108877380Y-96665476D01*
X108877380Y-95713095D02*
X108877380Y-96284523D01*
X108877380Y-95998809D02*
X107877380Y-95998809D01*
X108020238Y-96094047D01*
X108115476Y-96189285D01*
X108163095Y-96284523D01*
%TO.C,C8*%
X141333333Y-98507142D02*
X141285714Y-98554761D01*
X141142857Y-98602380D01*
X141047619Y-98602380D01*
X140904761Y-98554761D01*
X140809523Y-98459523D01*
X140761904Y-98364285D01*
X140714285Y-98173809D01*
X140714285Y-98030952D01*
X140761904Y-97840476D01*
X140809523Y-97745238D01*
X140904761Y-97650000D01*
X141047619Y-97602380D01*
X141142857Y-97602380D01*
X141285714Y-97650000D01*
X141333333Y-97697619D01*
X141904761Y-98030952D02*
X141809523Y-97983333D01*
X141761904Y-97935714D01*
X141714285Y-97840476D01*
X141714285Y-97792857D01*
X141761904Y-97697619D01*
X141809523Y-97650000D01*
X141904761Y-97602380D01*
X142095238Y-97602380D01*
X142190476Y-97650000D01*
X142238095Y-97697619D01*
X142285714Y-97792857D01*
X142285714Y-97840476D01*
X142238095Y-97935714D01*
X142190476Y-97983333D01*
X142095238Y-98030952D01*
X141904761Y-98030952D01*
X141809523Y-98078571D01*
X141761904Y-98126190D01*
X141714285Y-98221428D01*
X141714285Y-98411904D01*
X141761904Y-98507142D01*
X141809523Y-98554761D01*
X141904761Y-98602380D01*
X142095238Y-98602380D01*
X142190476Y-98554761D01*
X142238095Y-98507142D01*
X142285714Y-98411904D01*
X142285714Y-98221428D01*
X142238095Y-98126190D01*
X142190476Y-98078571D01*
X142095238Y-98030952D01*
%TO.C,R6*%
X151727380Y-113441666D02*
X151251190Y-113775000D01*
X151727380Y-114013095D02*
X150727380Y-114013095D01*
X150727380Y-113632142D01*
X150775000Y-113536904D01*
X150822619Y-113489285D01*
X150917857Y-113441666D01*
X151060714Y-113441666D01*
X151155952Y-113489285D01*
X151203571Y-113536904D01*
X151251190Y-113632142D01*
X151251190Y-114013095D01*
X150727380Y-112584523D02*
X150727380Y-112775000D01*
X150775000Y-112870238D01*
X150822619Y-112917857D01*
X150965476Y-113013095D01*
X151155952Y-113060714D01*
X151536904Y-113060714D01*
X151632142Y-113013095D01*
X151679761Y-112965476D01*
X151727380Y-112870238D01*
X151727380Y-112679761D01*
X151679761Y-112584523D01*
X151632142Y-112536904D01*
X151536904Y-112489285D01*
X151298809Y-112489285D01*
X151203571Y-112536904D01*
X151155952Y-112584523D01*
X151108333Y-112679761D01*
X151108333Y-112870238D01*
X151155952Y-112965476D01*
X151203571Y-113013095D01*
X151298809Y-113060714D01*
%TO.C,R10*%
X147857142Y-110952380D02*
X147523809Y-110476190D01*
X147285714Y-110952380D02*
X147285714Y-109952380D01*
X147666666Y-109952380D01*
X147761904Y-110000000D01*
X147809523Y-110047619D01*
X147857142Y-110142857D01*
X147857142Y-110285714D01*
X147809523Y-110380952D01*
X147761904Y-110428571D01*
X147666666Y-110476190D01*
X147285714Y-110476190D01*
X148809523Y-110952380D02*
X148238095Y-110952380D01*
X148523809Y-110952380D02*
X148523809Y-109952380D01*
X148428571Y-110095238D01*
X148333333Y-110190476D01*
X148238095Y-110238095D01*
X149428571Y-109952380D02*
X149523809Y-109952380D01*
X149619047Y-110000000D01*
X149666666Y-110047619D01*
X149714285Y-110142857D01*
X149761904Y-110333333D01*
X149761904Y-110571428D01*
X149714285Y-110761904D01*
X149666666Y-110857142D01*
X149619047Y-110904761D01*
X149523809Y-110952380D01*
X149428571Y-110952380D01*
X149333333Y-110904761D01*
X149285714Y-110857142D01*
X149238095Y-110761904D01*
X149190476Y-110571428D01*
X149190476Y-110333333D01*
X149238095Y-110142857D01*
X149285714Y-110047619D01*
X149333333Y-110000000D01*
X149428571Y-109952380D01*
%TO.C,R20*%
X122132380Y-94142857D02*
X121656190Y-94476190D01*
X122132380Y-94714285D02*
X121132380Y-94714285D01*
X121132380Y-94333333D01*
X121180000Y-94238095D01*
X121227619Y-94190476D01*
X121322857Y-94142857D01*
X121465714Y-94142857D01*
X121560952Y-94190476D01*
X121608571Y-94238095D01*
X121656190Y-94333333D01*
X121656190Y-94714285D01*
X121227619Y-93761904D02*
X121180000Y-93714285D01*
X121132380Y-93619047D01*
X121132380Y-93380952D01*
X121180000Y-93285714D01*
X121227619Y-93238095D01*
X121322857Y-93190476D01*
X121418095Y-93190476D01*
X121560952Y-93238095D01*
X122132380Y-93809523D01*
X122132380Y-93190476D01*
X121132380Y-92571428D02*
X121132380Y-92476190D01*
X121180000Y-92380952D01*
X121227619Y-92333333D01*
X121322857Y-92285714D01*
X121513333Y-92238095D01*
X121751428Y-92238095D01*
X121941904Y-92285714D01*
X122037142Y-92333333D01*
X122084761Y-92380952D01*
X122132380Y-92476190D01*
X122132380Y-92571428D01*
X122084761Y-92666666D01*
X122037142Y-92714285D01*
X121941904Y-92761904D01*
X121751428Y-92809523D01*
X121513333Y-92809523D01*
X121322857Y-92761904D01*
X121227619Y-92714285D01*
X121180000Y-92666666D01*
X121132380Y-92571428D01*
%TO.C,R8*%
X151652380Y-115566666D02*
X151176190Y-115900000D01*
X151652380Y-116138095D02*
X150652380Y-116138095D01*
X150652380Y-115757142D01*
X150700000Y-115661904D01*
X150747619Y-115614285D01*
X150842857Y-115566666D01*
X150985714Y-115566666D01*
X151080952Y-115614285D01*
X151128571Y-115661904D01*
X151176190Y-115757142D01*
X151176190Y-116138095D01*
X151080952Y-114995238D02*
X151033333Y-115090476D01*
X150985714Y-115138095D01*
X150890476Y-115185714D01*
X150842857Y-115185714D01*
X150747619Y-115138095D01*
X150700000Y-115090476D01*
X150652380Y-114995238D01*
X150652380Y-114804761D01*
X150700000Y-114709523D01*
X150747619Y-114661904D01*
X150842857Y-114614285D01*
X150890476Y-114614285D01*
X150985714Y-114661904D01*
X151033333Y-114709523D01*
X151080952Y-114804761D01*
X151080952Y-114995238D01*
X151128571Y-115090476D01*
X151176190Y-115138095D01*
X151271428Y-115185714D01*
X151461904Y-115185714D01*
X151557142Y-115138095D01*
X151604761Y-115090476D01*
X151652380Y-114995238D01*
X151652380Y-114804761D01*
X151604761Y-114709523D01*
X151557142Y-114661904D01*
X151461904Y-114614285D01*
X151271428Y-114614285D01*
X151176190Y-114661904D01*
X151128571Y-114709523D01*
X151080952Y-114804761D01*
%TO.C,Q3*%
X112547619Y-90495238D02*
X112500000Y-90590476D01*
X112404761Y-90685714D01*
X112261904Y-90828571D01*
X112214285Y-90923809D01*
X112214285Y-91019047D01*
X112452380Y-90971428D02*
X112404761Y-91066666D01*
X112309523Y-91161904D01*
X112119047Y-91209523D01*
X111785714Y-91209523D01*
X111595238Y-91161904D01*
X111500000Y-91066666D01*
X111452380Y-90971428D01*
X111452380Y-90780952D01*
X111500000Y-90685714D01*
X111595238Y-90590476D01*
X111785714Y-90542857D01*
X112119047Y-90542857D01*
X112309523Y-90590476D01*
X112404761Y-90685714D01*
X112452380Y-90780952D01*
X112452380Y-90971428D01*
X111452380Y-90209523D02*
X111452380Y-89590476D01*
X111833333Y-89923809D01*
X111833333Y-89780952D01*
X111880952Y-89685714D01*
X111928571Y-89638095D01*
X112023809Y-89590476D01*
X112261904Y-89590476D01*
X112357142Y-89638095D01*
X112404761Y-89685714D01*
X112452380Y-89780952D01*
X112452380Y-90066666D01*
X112404761Y-90161904D01*
X112357142Y-90209523D01*
%TO.C,Y1*%
X121801190Y-105126190D02*
X122277380Y-105126190D01*
X121277380Y-105459523D02*
X121801190Y-105126190D01*
X121277380Y-104792857D01*
X122277380Y-103935714D02*
X122277380Y-104507142D01*
X122277380Y-104221428D02*
X121277380Y-104221428D01*
X121420238Y-104316666D01*
X121515476Y-104411904D01*
X121563095Y-104507142D01*
%TO.C,R15*%
X135952380Y-91642857D02*
X135476190Y-91976190D01*
X135952380Y-92214285D02*
X134952380Y-92214285D01*
X134952380Y-91833333D01*
X135000000Y-91738095D01*
X135047619Y-91690476D01*
X135142857Y-91642857D01*
X135285714Y-91642857D01*
X135380952Y-91690476D01*
X135428571Y-91738095D01*
X135476190Y-91833333D01*
X135476190Y-92214285D01*
X135952380Y-90690476D02*
X135952380Y-91261904D01*
X135952380Y-90976190D02*
X134952380Y-90976190D01*
X135095238Y-91071428D01*
X135190476Y-91166666D01*
X135238095Y-91261904D01*
X134952380Y-89785714D02*
X134952380Y-90261904D01*
X135428571Y-90309523D01*
X135380952Y-90261904D01*
X135333333Y-90166666D01*
X135333333Y-89928571D01*
X135380952Y-89833333D01*
X135428571Y-89785714D01*
X135523809Y-89738095D01*
X135761904Y-89738095D01*
X135857142Y-89785714D01*
X135904761Y-89833333D01*
X135952380Y-89928571D01*
X135952380Y-90166666D01*
X135904761Y-90261904D01*
X135857142Y-90309523D01*
%TO.C,R11*%
X168252380Y-94642857D02*
X167776190Y-94976190D01*
X168252380Y-95214285D02*
X167252380Y-95214285D01*
X167252380Y-94833333D01*
X167300000Y-94738095D01*
X167347619Y-94690476D01*
X167442857Y-94642857D01*
X167585714Y-94642857D01*
X167680952Y-94690476D01*
X167728571Y-94738095D01*
X167776190Y-94833333D01*
X167776190Y-95214285D01*
X168252380Y-93690476D02*
X168252380Y-94261904D01*
X168252380Y-93976190D02*
X167252380Y-93976190D01*
X167395238Y-94071428D01*
X167490476Y-94166666D01*
X167538095Y-94261904D01*
X168252380Y-92738095D02*
X168252380Y-93309523D01*
X168252380Y-93023809D02*
X167252380Y-93023809D01*
X167395238Y-93119047D01*
X167490476Y-93214285D01*
X167538095Y-93309523D01*
%TO.C,BZ1*%
X186922419Y-108053435D02*
X186855076Y-107918748D01*
X186855076Y-107851404D01*
X186888748Y-107750389D01*
X186989763Y-107649374D01*
X187090778Y-107615702D01*
X187158122Y-107615702D01*
X187259137Y-107649374D01*
X187528511Y-107918748D01*
X186821404Y-108625854D01*
X186585702Y-108390152D01*
X186552030Y-108289137D01*
X186552030Y-108221793D01*
X186585702Y-108120778D01*
X186653045Y-108053435D01*
X186754061Y-108019763D01*
X186821404Y-108019763D01*
X186922419Y-108053435D01*
X187158122Y-108289137D01*
X186181641Y-107986091D02*
X185710236Y-107514687D01*
X186888748Y-107278984D01*
X186417343Y-106807580D01*
X185777580Y-106167816D02*
X186181641Y-106571877D01*
X185979610Y-106369847D02*
X185272503Y-107076954D01*
X185440862Y-107043282D01*
X185575549Y-107043282D01*
X185676564Y-107076954D01*
X183408341Y-108147089D02*
X183947089Y-107608341D01*
X183947089Y-108147089D02*
X183408341Y-107608341D01*
%TO.C,C13*%
X143507142Y-108142857D02*
X143554761Y-108190476D01*
X143602380Y-108333333D01*
X143602380Y-108428571D01*
X143554761Y-108571428D01*
X143459523Y-108666666D01*
X143364285Y-108714285D01*
X143173809Y-108761904D01*
X143030952Y-108761904D01*
X142840476Y-108714285D01*
X142745238Y-108666666D01*
X142650000Y-108571428D01*
X142602380Y-108428571D01*
X142602380Y-108333333D01*
X142650000Y-108190476D01*
X142697619Y-108142857D01*
X143602380Y-107190476D02*
X143602380Y-107761904D01*
X143602380Y-107476190D02*
X142602380Y-107476190D01*
X142745238Y-107571428D01*
X142840476Y-107666666D01*
X142888095Y-107761904D01*
X142602380Y-106857142D02*
X142602380Y-106238095D01*
X142983333Y-106571428D01*
X142983333Y-106428571D01*
X143030952Y-106333333D01*
X143078571Y-106285714D01*
X143173809Y-106238095D01*
X143411904Y-106238095D01*
X143507142Y-106285714D01*
X143554761Y-106333333D01*
X143602380Y-106428571D01*
X143602380Y-106714285D01*
X143554761Y-106809523D01*
X143507142Y-106857142D01*
%TO.C,R13*%
X109952380Y-94242857D02*
X109476190Y-94576190D01*
X109952380Y-94814285D02*
X108952380Y-94814285D01*
X108952380Y-94433333D01*
X109000000Y-94338095D01*
X109047619Y-94290476D01*
X109142857Y-94242857D01*
X109285714Y-94242857D01*
X109380952Y-94290476D01*
X109428571Y-94338095D01*
X109476190Y-94433333D01*
X109476190Y-94814285D01*
X109952380Y-93290476D02*
X109952380Y-93861904D01*
X109952380Y-93576190D02*
X108952380Y-93576190D01*
X109095238Y-93671428D01*
X109190476Y-93766666D01*
X109238095Y-93861904D01*
X108952380Y-92957142D02*
X108952380Y-92338095D01*
X109333333Y-92671428D01*
X109333333Y-92528571D01*
X109380952Y-92433333D01*
X109428571Y-92385714D01*
X109523809Y-92338095D01*
X109761904Y-92338095D01*
X109857142Y-92385714D01*
X109904761Y-92433333D01*
X109952380Y-92528571D01*
X109952380Y-92814285D01*
X109904761Y-92909523D01*
X109857142Y-92957142D01*
%TO.C,Y2*%
X152751190Y-106251190D02*
X153227380Y-106251190D01*
X152227380Y-106584523D02*
X152751190Y-106251190D01*
X152227380Y-105917857D01*
X152322619Y-105632142D02*
X152275000Y-105584523D01*
X152227380Y-105489285D01*
X152227380Y-105251190D01*
X152275000Y-105155952D01*
X152322619Y-105108333D01*
X152417857Y-105060714D01*
X152513095Y-105060714D01*
X152655952Y-105108333D01*
X153227380Y-105679761D01*
X153227380Y-105060714D01*
%TO.C,R14*%
X135952380Y-94642857D02*
X135476190Y-94976190D01*
X135952380Y-95214285D02*
X134952380Y-95214285D01*
X134952380Y-94833333D01*
X135000000Y-94738095D01*
X135047619Y-94690476D01*
X135142857Y-94642857D01*
X135285714Y-94642857D01*
X135380952Y-94690476D01*
X135428571Y-94738095D01*
X135476190Y-94833333D01*
X135476190Y-95214285D01*
X135952380Y-93690476D02*
X135952380Y-94261904D01*
X135952380Y-93976190D02*
X134952380Y-93976190D01*
X135095238Y-94071428D01*
X135190476Y-94166666D01*
X135238095Y-94261904D01*
X135285714Y-92833333D02*
X135952380Y-92833333D01*
X134904761Y-93071428D02*
X135619047Y-93309523D01*
X135619047Y-92690476D01*
%TO.C,C11*%
X146857142Y-101657142D02*
X146809523Y-101704761D01*
X146666666Y-101752380D01*
X146571428Y-101752380D01*
X146428571Y-101704761D01*
X146333333Y-101609523D01*
X146285714Y-101514285D01*
X146238095Y-101323809D01*
X146238095Y-101180952D01*
X146285714Y-100990476D01*
X146333333Y-100895238D01*
X146428571Y-100800000D01*
X146571428Y-100752380D01*
X146666666Y-100752380D01*
X146809523Y-100800000D01*
X146857142Y-100847619D01*
X147809523Y-101752380D02*
X147238095Y-101752380D01*
X147523809Y-101752380D02*
X147523809Y-100752380D01*
X147428571Y-100895238D01*
X147333333Y-100990476D01*
X147238095Y-101038095D01*
X148761904Y-101752380D02*
X148190476Y-101752380D01*
X148476190Y-101752380D02*
X148476190Y-100752380D01*
X148380952Y-100895238D01*
X148285714Y-100990476D01*
X148190476Y-101038095D01*
%TO.C,R19*%
X116082142Y-96782380D02*
X115748809Y-96306190D01*
X115510714Y-96782380D02*
X115510714Y-95782380D01*
X115891666Y-95782380D01*
X115986904Y-95830000D01*
X116034523Y-95877619D01*
X116082142Y-95972857D01*
X116082142Y-96115714D01*
X116034523Y-96210952D01*
X115986904Y-96258571D01*
X115891666Y-96306190D01*
X115510714Y-96306190D01*
X117034523Y-96782380D02*
X116463095Y-96782380D01*
X116748809Y-96782380D02*
X116748809Y-95782380D01*
X116653571Y-95925238D01*
X116558333Y-96020476D01*
X116463095Y-96068095D01*
X117510714Y-96782380D02*
X117701190Y-96782380D01*
X117796428Y-96734761D01*
X117844047Y-96687142D01*
X117939285Y-96544285D01*
X117986904Y-96353809D01*
X117986904Y-95972857D01*
X117939285Y-95877619D01*
X117891666Y-95830000D01*
X117796428Y-95782380D01*
X117605952Y-95782380D01*
X117510714Y-95830000D01*
X117463095Y-95877619D01*
X117415476Y-95972857D01*
X117415476Y-96210952D01*
X117463095Y-96306190D01*
X117510714Y-96353809D01*
X117605952Y-96401428D01*
X117796428Y-96401428D01*
X117891666Y-96353809D01*
X117939285Y-96306190D01*
X117986904Y-96210952D01*
%TO.C,C9*%
X172823333Y-100097142D02*
X172775714Y-100144761D01*
X172632857Y-100192380D01*
X172537619Y-100192380D01*
X172394761Y-100144761D01*
X172299523Y-100049523D01*
X172251904Y-99954285D01*
X172204285Y-99763809D01*
X172204285Y-99620952D01*
X172251904Y-99430476D01*
X172299523Y-99335238D01*
X172394761Y-99240000D01*
X172537619Y-99192380D01*
X172632857Y-99192380D01*
X172775714Y-99240000D01*
X172823333Y-99287619D01*
X173299523Y-100192380D02*
X173490000Y-100192380D01*
X173585238Y-100144761D01*
X173632857Y-100097142D01*
X173728095Y-99954285D01*
X173775714Y-99763809D01*
X173775714Y-99382857D01*
X173728095Y-99287619D01*
X173680476Y-99240000D01*
X173585238Y-99192380D01*
X173394761Y-99192380D01*
X173299523Y-99240000D01*
X173251904Y-99287619D01*
X173204285Y-99382857D01*
X173204285Y-99620952D01*
X173251904Y-99716190D01*
X173299523Y-99763809D01*
X173394761Y-99811428D01*
X173585238Y-99811428D01*
X173680476Y-99763809D01*
X173728095Y-99716190D01*
X173775714Y-99620952D01*
%TO.C,D14*%
X170462380Y-107734285D02*
X169462380Y-107734285D01*
X169462380Y-107496190D01*
X169510000Y-107353333D01*
X169605238Y-107258095D01*
X169700476Y-107210476D01*
X169890952Y-107162857D01*
X170033809Y-107162857D01*
X170224285Y-107210476D01*
X170319523Y-107258095D01*
X170414761Y-107353333D01*
X170462380Y-107496190D01*
X170462380Y-107734285D01*
X170462380Y-106210476D02*
X170462380Y-106781904D01*
X170462380Y-106496190D02*
X169462380Y-106496190D01*
X169605238Y-106591428D01*
X169700476Y-106686666D01*
X169748095Y-106781904D01*
X169795714Y-105353333D02*
X170462380Y-105353333D01*
X169414761Y-105591428D02*
X170129047Y-105829523D01*
X170129047Y-105210476D01*
%TO.C,R12*%
X168177380Y-91767857D02*
X167701190Y-92101190D01*
X168177380Y-92339285D02*
X167177380Y-92339285D01*
X167177380Y-91958333D01*
X167225000Y-91863095D01*
X167272619Y-91815476D01*
X167367857Y-91767857D01*
X167510714Y-91767857D01*
X167605952Y-91815476D01*
X167653571Y-91863095D01*
X167701190Y-91958333D01*
X167701190Y-92339285D01*
X168177380Y-90815476D02*
X168177380Y-91386904D01*
X168177380Y-91101190D02*
X167177380Y-91101190D01*
X167320238Y-91196428D01*
X167415476Y-91291666D01*
X167463095Y-91386904D01*
X167272619Y-90434523D02*
X167225000Y-90386904D01*
X167177380Y-90291666D01*
X167177380Y-90053571D01*
X167225000Y-89958333D01*
X167272619Y-89910714D01*
X167367857Y-89863095D01*
X167463095Y-89863095D01*
X167605952Y-89910714D01*
X168177380Y-90482142D01*
X168177380Y-89863095D01*
%TO.C,D7*%
X179661904Y-97182380D02*
X179661904Y-96182380D01*
X179900000Y-96182380D01*
X180042857Y-96230000D01*
X180138095Y-96325238D01*
X180185714Y-96420476D01*
X180233333Y-96610952D01*
X180233333Y-96753809D01*
X180185714Y-96944285D01*
X180138095Y-97039523D01*
X180042857Y-97134761D01*
X179900000Y-97182380D01*
X179661904Y-97182380D01*
X180566666Y-96182380D02*
X181233333Y-96182380D01*
X180804761Y-97182380D01*
%TO.C,U5*%
X167125000Y-97675000D02*
X166800000Y-97675000D01*
X167125000Y-104925000D02*
X166800000Y-104925000D01*
X159875000Y-97900000D02*
X158450000Y-97900000D01*
X159875000Y-104925000D02*
X160200000Y-104925000D01*
X167125000Y-104925000D02*
X167125000Y-104600000D01*
X159875000Y-97675000D02*
X159875000Y-97900000D01*
X159875000Y-104925000D02*
X159875000Y-104600000D01*
X167125000Y-97675000D02*
X167125000Y-98000000D01*
X159875000Y-97675000D02*
X160200000Y-97675000D01*
D17*
%TO.C,R9*%
X116490000Y-105077064D02*
X116490000Y-103622936D01*
X118310000Y-105077064D02*
X118310000Y-103622936D01*
%TO.C,Q2*%
X117440000Y-93500000D02*
X117440000Y-95175000D01*
X117440000Y-93500000D02*
X117440000Y-92850000D01*
X120560000Y-93500000D02*
X120560000Y-94150000D01*
X120560000Y-93500000D02*
X120560000Y-92850000D01*
%TO.C,C12*%
X119135000Y-110338748D02*
X119135000Y-111761252D01*
X117315000Y-110338748D02*
X117315000Y-111761252D01*
%TO.C,C10*%
X115535000Y-110313748D02*
X115535000Y-111736252D01*
X113715000Y-110313748D02*
X113715000Y-111736252D01*
%TO.C,J10*%
X116170000Y-128745000D02*
X116170000Y-133885000D01*
X116170000Y-126145000D02*
X117500000Y-126145000D01*
X116170000Y-133885000D02*
X118830000Y-133885000D01*
X118830000Y-128745000D02*
X118830000Y-133885000D01*
X116170000Y-127475000D02*
X116170000Y-126145000D01*
X116170000Y-128745000D02*
X118830000Y-128745000D01*
%TO.C,D10*%
X136915000Y-115835000D02*
X140800000Y-115835000D01*
X140800000Y-113565000D02*
X136915000Y-113565000D01*
X136915000Y-113565000D02*
X136915000Y-115835000D01*
%TO.C,J3*%
X156620000Y-86540000D02*
X146460000Y-86540000D01*
X146460000Y-80190000D02*
X146460000Y-87810000D01*
X156620000Y-80190000D02*
X146460000Y-80190000D01*
X146460000Y-87810000D02*
X156620000Y-87810000D01*
X156620000Y-87810000D02*
X156620000Y-80190000D01*
%TO.C,J6*%
X112170000Y-128745000D02*
X112170000Y-133885000D01*
X112170000Y-128745000D02*
X114830000Y-128745000D01*
X112170000Y-127475000D02*
X112170000Y-126145000D01*
X112170000Y-133885000D02*
X114830000Y-133885000D01*
X112170000Y-126145000D02*
X113500000Y-126145000D01*
X114830000Y-128745000D02*
X114830000Y-133885000D01*
%TO.C,J9*%
X143500000Y-80670000D02*
X144830000Y-80670000D01*
X129470000Y-80670000D02*
X129470000Y-83330000D01*
X142230000Y-80670000D02*
X129470000Y-80670000D01*
X144830000Y-80670000D02*
X144830000Y-82000000D01*
X142230000Y-83330000D02*
X129470000Y-83330000D01*
X142230000Y-80670000D02*
X142230000Y-83330000D01*
%TO.C,J5*%
X111780000Y-88810000D02*
X124630000Y-88810000D01*
X124630000Y-88810000D02*
X124630000Y-80510000D01*
X108930000Y-83060000D02*
X108930000Y-86210000D01*
X124630000Y-80510000D02*
X111780000Y-80510000D01*
X108930000Y-86210000D02*
X111780000Y-88810000D01*
X111780000Y-80510000D02*
X108930000Y-83060000D01*
%TO.C,SW2*%
X144300000Y-120250000D02*
X144300000Y-121750000D01*
X145550000Y-124250000D02*
X150050000Y-124250000D01*
X151300000Y-121750000D02*
X151300000Y-120250000D01*
X150050000Y-117750000D02*
X145550000Y-117750000D01*
%TO.C,R21*%
X110772936Y-97910000D02*
X112227064Y-97910000D01*
X110772936Y-96090000D02*
X112227064Y-96090000D01*
%TO.C,J18*%
X100670000Y-90770000D02*
X100670000Y-95910000D01*
X100670000Y-88170000D02*
X102000000Y-88170000D01*
X100670000Y-90770000D02*
X103330000Y-90770000D01*
X100670000Y-89500000D02*
X100670000Y-88170000D01*
X100670000Y-95910000D02*
X103330000Y-95910000D01*
X103330000Y-90770000D02*
X103330000Y-95910000D01*
%TO.C,D11*%
X169715000Y-120635000D02*
X173600000Y-120635000D01*
X173600000Y-118365000D02*
X169715000Y-118365000D01*
X169715000Y-118365000D02*
X169715000Y-120635000D01*
D12*
%TO.C,Logo2*%
X190560000Y-118740000D02*
X190560000Y-118994000D01*
X190560000Y-118994000D02*
X188020000Y-128900000D01*
X188020000Y-128900000D02*
X188020000Y-121280000D01*
X188020000Y-121280000D02*
X190560000Y-118740000D01*
G36*
X190560000Y-118994000D02*
G01*
X188020000Y-128900000D01*
X188020000Y-121280000D01*
X190560000Y-118740000D01*
X190560000Y-118994000D01*
G37*
X190560000Y-118994000D02*
X188020000Y-128900000D01*
X188020000Y-121280000D01*
X190560000Y-118740000D01*
X190560000Y-118994000D01*
X195640000Y-123820000D02*
X198180000Y-126360000D01*
X198180000Y-126360000D02*
X189290000Y-123820000D01*
X189290000Y-123820000D02*
X195640000Y-123820000D01*
G36*
X198180000Y-126360000D02*
G01*
X189290000Y-123820000D01*
X195640000Y-123820000D01*
X198180000Y-126360000D01*
G37*
X198180000Y-126360000D02*
X189290000Y-123820000D01*
X195640000Y-123820000D01*
X198180000Y-126360000D01*
D17*
%TO.C,D12*%
X136815000Y-116265000D02*
X136815000Y-118535000D01*
X136815000Y-118535000D02*
X140700000Y-118535000D01*
X140700000Y-116265000D02*
X136815000Y-116265000D01*
%TO.C,C8*%
X140788748Y-99090000D02*
X142211252Y-99090000D01*
X140788748Y-100910000D02*
X142211252Y-100910000D01*
%TO.C,R6*%
X147272936Y-111590000D02*
X148727064Y-111590000D01*
X147272936Y-113410000D02*
X148727064Y-113410000D01*
D10*
%TO.C,U4*%
X134875000Y-97675000D02*
X134550000Y-97675000D01*
X134875000Y-104925000D02*
X134875000Y-104600000D01*
X127625000Y-97675000D02*
X127625000Y-97900000D01*
X127625000Y-104925000D02*
X127950000Y-104925000D01*
X127625000Y-97675000D02*
X127950000Y-97675000D01*
X127625000Y-97900000D02*
X126200000Y-97900000D01*
X127625000Y-104925000D02*
X127625000Y-104600000D01*
X134875000Y-97675000D02*
X134875000Y-98000000D01*
X134875000Y-104925000D02*
X134550000Y-104925000D01*
D17*
%TO.C,J1*%
X106610000Y-97040000D02*
X106610000Y-110960000D01*
%TO.C,J15*%
X196670000Y-115470000D02*
X199330000Y-115470000D01*
X196670000Y-114200000D02*
X196670000Y-112870000D01*
X199330000Y-115470000D02*
X199330000Y-123150000D01*
X196670000Y-123150000D02*
X199330000Y-123150000D01*
X196670000Y-115470000D02*
X196670000Y-123150000D01*
X196670000Y-112870000D02*
X198000000Y-112870000D01*
%TO.C,R10*%
X147590000Y-108227064D02*
X147590000Y-106772936D01*
X149410000Y-108227064D02*
X149410000Y-106772936D01*
%TO.C,R20*%
X124410000Y-94227064D02*
X124410000Y-92772936D01*
X122590000Y-94227064D02*
X122590000Y-92772936D01*
%TO.C,J12*%
X196670000Y-108270000D02*
X196670000Y-95510000D01*
X199330000Y-109540000D02*
X199330000Y-110870000D01*
X199330000Y-108270000D02*
X199330000Y-95510000D01*
X199330000Y-108270000D02*
X196670000Y-108270000D01*
X199330000Y-95510000D02*
X196670000Y-95510000D01*
X199330000Y-110870000D02*
X198000000Y-110870000D01*
%TO.C,D9*%
X173600000Y-115365000D02*
X169715000Y-115365000D01*
X169715000Y-117635000D02*
X173600000Y-117635000D01*
X169715000Y-115365000D02*
X169715000Y-117635000D01*
%TO.C,R8*%
X147272936Y-114590000D02*
X148727064Y-114590000D01*
X147272936Y-116410000D02*
X148727064Y-116410000D01*
%TO.C,Q3*%
X113560000Y-93500000D02*
X113560000Y-94150000D01*
X110440000Y-93500000D02*
X110440000Y-95175000D01*
X113560000Y-93500000D02*
X113560000Y-92850000D01*
X110440000Y-93500000D02*
X110440000Y-92850000D01*
%TO.C,Y1*%
X124155000Y-106300000D02*
X124155000Y-102800000D01*
X119695000Y-106300000D02*
X119695000Y-102800000D01*
%TO.C,J19*%
X110830000Y-101270000D02*
X110830000Y-108950000D01*
X108170000Y-108950000D02*
X110830000Y-108950000D01*
X108170000Y-100000000D02*
X108170000Y-98670000D01*
X108170000Y-101270000D02*
X110830000Y-101270000D01*
X108170000Y-98670000D02*
X109500000Y-98670000D01*
X108170000Y-101270000D02*
X108170000Y-108950000D01*
D10*
%TO.C,U3*%
X128525000Y-123025000D02*
X128525000Y-122375000D01*
X128525000Y-112375000D02*
X128525000Y-112950000D01*
X128525000Y-112375000D02*
X134275000Y-112375000D01*
X128525000Y-123025000D02*
X134275000Y-123025000D01*
X134275000Y-112375000D02*
X134275000Y-113025000D01*
X134275000Y-123025000D02*
X134275000Y-122375000D01*
X128525000Y-112950000D02*
X126925000Y-112950000D01*
D17*
%TO.C,J14*%
X118830000Y-120730000D02*
X116170000Y-120730000D01*
X118830000Y-122000000D02*
X118830000Y-123330000D01*
X116170000Y-120730000D02*
X116170000Y-115590000D01*
X118830000Y-115590000D02*
X116170000Y-115590000D01*
X118830000Y-120730000D02*
X118830000Y-115590000D01*
X118830000Y-123330000D02*
X117500000Y-123330000D01*
%TO.C,R15*%
X130772936Y-90090000D02*
X132227064Y-90090000D01*
X130772936Y-91910000D02*
X132227064Y-91910000D01*
%TO.C,J17*%
X158380000Y-81460000D02*
X168540000Y-81460000D01*
X158380000Y-80190000D02*
X158380000Y-87810000D01*
X168540000Y-87810000D02*
X168540000Y-80190000D01*
X158380000Y-87810000D02*
X168540000Y-87810000D01*
X168540000Y-80190000D02*
X158380000Y-80190000D01*
%TO.C,R11*%
X163772936Y-94910000D02*
X165227064Y-94910000D01*
X163772936Y-93090000D02*
X165227064Y-93090000D01*
%TO.C,D5*%
X150415000Y-91085000D02*
X154300000Y-91085000D01*
X154300000Y-88815000D02*
X150415000Y-88815000D01*
X150415000Y-88815000D02*
X150415000Y-91085000D01*
%TO.C,D4*%
X147710000Y-88540000D02*
X143825000Y-88540000D01*
X147710000Y-90810000D02*
X147710000Y-88540000D01*
X143825000Y-90810000D02*
X147710000Y-90810000D01*
%TO.C,BZ1*%
X193687005Y-106412994D02*
G75*
G03*
X193687005Y-106412994I-6099999J0D01*
G01*
%TO.C,J20*%
X199585000Y-92430000D02*
X199585000Y-89770000D01*
X191845000Y-92430000D02*
X191845000Y-91100000D01*
X194445000Y-92430000D02*
X199585000Y-92430000D01*
X194445000Y-92430000D02*
X194445000Y-89770000D01*
X193175000Y-92430000D02*
X191845000Y-92430000D01*
X194445000Y-89770000D02*
X199585000Y-89770000D01*
%TO.C,C13*%
X145910000Y-108211252D02*
X145910000Y-106788748D01*
X144090000Y-108211252D02*
X144090000Y-106788748D01*
%TO.C,R13*%
X106590000Y-94327064D02*
X106590000Y-92872936D01*
X108410000Y-94327064D02*
X108410000Y-92872936D01*
%TO.C,J13*%
X120170000Y-126145000D02*
X121500000Y-126145000D01*
X122830000Y-128745000D02*
X122830000Y-133885000D01*
X120170000Y-128745000D02*
X120170000Y-133885000D01*
X120170000Y-128745000D02*
X122830000Y-128745000D01*
X120170000Y-133885000D02*
X122830000Y-133885000D01*
X120170000Y-127475000D02*
X120170000Y-126145000D01*
%TO.C,Y2*%
X150795000Y-107575000D02*
X150795000Y-104075000D01*
X155255000Y-107575000D02*
X155255000Y-104075000D01*
%TO.C,J16*%
X108170000Y-126145000D02*
X109500000Y-126145000D01*
X110830000Y-128745000D02*
X110830000Y-133885000D01*
X108170000Y-128745000D02*
X108170000Y-133885000D01*
X108170000Y-128745000D02*
X110830000Y-128745000D01*
X108170000Y-127475000D02*
X108170000Y-126145000D01*
X108170000Y-133885000D02*
X110830000Y-133885000D01*
%TO.C,K1*%
X177150000Y-88050000D02*
X172550000Y-90550000D01*
X184550000Y-82050000D02*
X182050000Y-82050000D01*
X184050000Y-86250000D02*
X184050000Y-89850000D01*
X169700000Y-80300000D02*
X189500000Y-80300000D01*
X178650000Y-88050000D02*
X177150000Y-88050000D01*
X189500000Y-95900000D02*
X189500000Y-89300000D01*
X180050000Y-86250000D02*
X184050000Y-89850000D01*
X185450000Y-88050000D02*
X185450000Y-84450000D01*
X185450000Y-88050000D02*
X186250000Y-88050000D01*
X173950000Y-83900000D02*
X173950000Y-86350000D01*
X178650000Y-88050000D02*
X178650000Y-84450000D01*
X182050000Y-94050000D02*
X184550000Y-94050000D01*
X189500000Y-95900000D02*
X169700000Y-95900000D01*
X189500000Y-86900000D02*
X189500000Y-80300000D01*
X184050000Y-89850000D02*
X180050000Y-89850000D01*
X182050000Y-94050000D02*
X182050000Y-89850000D01*
X180050000Y-89850000D02*
X180050000Y-86250000D01*
X180050000Y-86250000D02*
X184050000Y-86250000D01*
X182050000Y-86250000D02*
X182050000Y-82050000D01*
X178650000Y-84450000D02*
X185450000Y-84450000D01*
X173950000Y-92300000D02*
X173950000Y-89800000D01*
X169700000Y-95900000D02*
X169700000Y-80300000D01*
%TO.C,R14*%
X130772936Y-94910000D02*
X132227064Y-94910000D01*
X130772936Y-93090000D02*
X132227064Y-93090000D01*
%TO.C,J11*%
X115330000Y-120730000D02*
X115330000Y-115590000D01*
X115330000Y-120730000D02*
X112670000Y-120730000D01*
X115330000Y-123330000D02*
X114000000Y-123330000D01*
X115330000Y-122000000D02*
X115330000Y-123330000D01*
X112670000Y-120730000D02*
X112670000Y-115590000D01*
X115330000Y-115590000D02*
X112670000Y-115590000D01*
%TO.C,C11*%
X148211252Y-102590000D02*
X146788748Y-102590000D01*
X148211252Y-104410000D02*
X146788748Y-104410000D01*
%TO.C,R19*%
X115997936Y-97240000D02*
X117452064Y-97240000D01*
X115997936Y-99060000D02*
X117452064Y-99060000D01*
%TO.C,C9*%
X172288748Y-102410000D02*
X173711252Y-102410000D01*
X172288748Y-100590000D02*
X173711252Y-100590000D01*
D10*
%TO.C,U2*%
X165975000Y-112375000D02*
X165975000Y-113025000D01*
X160225000Y-123025000D02*
X160225000Y-122375000D01*
X160225000Y-123025000D02*
X165975000Y-123025000D01*
X160225000Y-112375000D02*
X160225000Y-112950000D01*
X160225000Y-112375000D02*
X165975000Y-112375000D01*
X160225000Y-112950000D02*
X158625000Y-112950000D01*
X165975000Y-123025000D02*
X165975000Y-122375000D01*
D17*
%TO.C,J4*%
X125040000Y-125890000D02*
X138960000Y-125890000D01*
%TO.C,J2*%
X156540000Y-125790000D02*
X170460000Y-125790000D01*
%TO.C,D14*%
X174600000Y-105365000D02*
X170715000Y-105365000D01*
X170715000Y-107635000D02*
X174600000Y-107635000D01*
X170715000Y-105365000D02*
X170715000Y-107635000D01*
%TO.C,J8*%
X100670000Y-113500000D02*
X100670000Y-112170000D01*
X100670000Y-127530000D02*
X103330000Y-127530000D01*
X100670000Y-114770000D02*
X103330000Y-114770000D01*
X100670000Y-112170000D02*
X102000000Y-112170000D01*
X100670000Y-114770000D02*
X100670000Y-127530000D01*
X103330000Y-114770000D02*
X103330000Y-127530000D01*
%TO.C,R12*%
X163772936Y-90590000D02*
X165227064Y-90590000D01*
X163772936Y-92410000D02*
X165227064Y-92410000D01*
%TO.C,J7*%
X109170000Y-120730000D02*
X109170000Y-115590000D01*
X111830000Y-122000000D02*
X111830000Y-123330000D01*
X111830000Y-115590000D02*
X109170000Y-115590000D01*
X111830000Y-120730000D02*
X111830000Y-115590000D01*
X111830000Y-123330000D02*
X110500000Y-123330000D01*
X111830000Y-120730000D02*
X109170000Y-120730000D01*
%TO.C,D13*%
X132215000Y-111135000D02*
X136100000Y-111135000D01*
X132215000Y-108865000D02*
X132215000Y-111135000D01*
X136100000Y-108865000D02*
X132215000Y-108865000D01*
%TO.C,D7*%
X182000000Y-97415000D02*
X178115000Y-97415000D01*
X178115000Y-99685000D02*
X182000000Y-99685000D01*
X178115000Y-97415000D02*
X178115000Y-99685000D01*
%TD*%
M02*
