%TF.GenerationSoftware,KiCad,Pcbnew,(6.0.2)*%
%TF.CreationDate,2022-05-29T08:20:39+05:30*%
%TF.ProjectId,AIO,41494f2e-6b69-4636-9164-5f7063625858,rev?*%
%TF.SameCoordinates,Original*%
%TF.FileFunction,Soldermask,Bot*%
%TF.FilePolarity,Negative*%
%FSLAX46Y46*%
G04 Gerber Fmt 4.6, Leading zero omitted, Abs format (unit mm)*
G04 Created by KiCad (PCBNEW (6.0.2)) date 2022-05-29 08:20:39*
%MOMM*%
%LPD*%
G01*
G04 APERTURE LIST*
G04 Aperture macros list*
%AMRoundRect*
0 Rectangle with rounded corners*
0 $1 Rounding radius*
0 $2 $3 $4 $5 $6 $7 $8 $9 X,Y pos of 4 corners*
0 Add a 4 corners polygon primitive as box body*
4,1,4,$2,$3,$4,$5,$6,$7,$8,$9,$2,$3,0*
0 Add four circle primitives for the rounded corners*
1,1,$1+$1,$2,$3*
1,1,$1+$1,$4,$5*
1,1,$1+$1,$6,$7*
1,1,$1+$1,$8,$9*
0 Add four rect primitives between the rounded corners*
20,1,$1+$1,$2,$3,$4,$5,0*
20,1,$1+$1,$4,$5,$6,$7,0*
20,1,$1+$1,$6,$7,$8,$9,0*
20,1,$1+$1,$8,$9,$2,$3,0*%
%AMRotRect*
0 Rectangle, with rotation*
0 The origin of the aperture is its center*
0 $1 length*
0 $2 width*
0 $3 Rotation angle, in degrees counterclockwise*
0 Add horizontal line*
21,1,$1,$2,0,0,$3*%
G04 Aperture macros list end*
%ADD10R,1.700000X1.700000*%
%ADD11O,1.700000X1.700000*%
%ADD12R,3.000000X3.000000*%
%ADD13C,3.000000*%
%ADD14RoundRect,1.500000X-1.500000X-1.500000X1.500000X-1.500000X1.500000X1.500000X-1.500000X1.500000X0*%
%ADD15C,6.000000*%
%ADD16C,2.000000*%
%ADD17C,0.800000*%
%ADD18C,6.400000*%
%ADD19C,1.200000*%
%ADD20O,2.400000X1.200000*%
%ADD21RotRect,1.600000X1.600000X45.000000*%
%ADD22C,1.600000*%
%ADD23C,2.500000*%
%ADD24O,1.200000X2.400000*%
%ADD25RoundRect,0.250000X-0.375000X-1.075000X0.375000X-1.075000X0.375000X1.075000X-0.375000X1.075000X0*%
%ADD26R,1.200000X1.400000*%
%ADD27RoundRect,0.250000X0.325000X0.650000X-0.325000X0.650000X-0.325000X-0.650000X0.325000X-0.650000X0*%
%ADD28RoundRect,0.250000X-0.325000X-0.650000X0.325000X-0.650000X0.325000X0.650000X-0.325000X0.650000X0*%
%ADD29RoundRect,0.150000X-0.587500X-0.150000X0.587500X-0.150000X0.587500X0.150000X-0.587500X0.150000X0*%
%ADD30R,4.600000X1.100000*%
%ADD31R,9.400000X10.800000*%
%ADD32RoundRect,0.250000X-0.312500X-0.625000X0.312500X-0.625000X0.312500X0.625000X-0.312500X0.625000X0*%
%ADD33RoundRect,0.250000X-0.625000X0.312500X-0.625000X-0.312500X0.625000X-0.312500X0.625000X0.312500X0*%
%ADD34RoundRect,0.250000X-0.650000X0.325000X-0.650000X-0.325000X0.650000X-0.325000X0.650000X0.325000X0*%
%ADD35R,1.800000X5.400000*%
%ADD36RoundRect,0.250000X0.312500X0.625000X-0.312500X0.625000X-0.312500X-0.625000X0.312500X-0.625000X0*%
%ADD37RoundRect,0.250000X-0.550000X1.500000X-0.550000X-1.500000X0.550000X-1.500000X0.550000X1.500000X0*%
%ADD38R,0.900000X1.200000*%
%ADD39R,1.800000X1.600000*%
%ADD40R,5.500000X3.250000*%
G04 APERTURE END LIST*
D10*
%TO.C,J10*%
X117500000Y-127475000D03*
D11*
X117500000Y-130015000D03*
X117500000Y-132555000D03*
%TD*%
D12*
%TO.C,J3*%
X149000000Y-84000000D03*
D13*
X154080000Y-84000000D03*
%TD*%
D10*
%TO.C,J6*%
X113500000Y-127475000D03*
D11*
X113500000Y-130015000D03*
X113500000Y-132555000D03*
%TD*%
D10*
%TO.C,J9*%
X143500000Y-82000000D03*
D11*
X140960000Y-82000000D03*
X138420000Y-82000000D03*
X135880000Y-82000000D03*
X133340000Y-82000000D03*
X130800000Y-82000000D03*
%TD*%
D14*
%TO.C,J5*%
X113180000Y-84660000D03*
D15*
X120380000Y-84660000D03*
%TD*%
D16*
%TO.C,SW2*%
X151050000Y-118750000D03*
X144550000Y-118750000D03*
X151050000Y-123250000D03*
X144550000Y-123250000D03*
%TD*%
D17*
%TO.C,H4*%
X194302944Y-132697056D03*
X194302944Y-129302944D03*
X196000000Y-128600000D03*
X198400000Y-131000000D03*
D18*
X196000000Y-131000000D03*
D17*
X197697056Y-129302944D03*
X197697056Y-132697056D03*
X193600000Y-131000000D03*
X196000000Y-133400000D03*
%TD*%
D10*
%TO.C,J18*%
X102000000Y-89500000D03*
D11*
X102000000Y-92040000D03*
X102000000Y-94580000D03*
%TD*%
D17*
%TO.C,H3*%
X105697056Y-129302944D03*
X104000000Y-128600000D03*
X101600000Y-131000000D03*
X104000000Y-133400000D03*
X102302944Y-129302944D03*
X102302944Y-132697056D03*
X105697056Y-132697056D03*
D18*
X104000000Y-131000000D03*
D17*
X106400000Y-131000000D03*
%TD*%
D19*
%TO.C,J1*%
X104050000Y-100500000D03*
X104050000Y-103000000D03*
X104050000Y-105000000D03*
X104050000Y-107500000D03*
X105550000Y-108000000D03*
X105550000Y-106000000D03*
X105550000Y-104000000D03*
X105550000Y-102000000D03*
X105550000Y-100000000D03*
D20*
X102550000Y-110500000D03*
X102550000Y-97500000D03*
%TD*%
D10*
%TO.C,J15*%
X198000000Y-114200000D03*
D11*
X198000000Y-116740000D03*
X198000000Y-119280000D03*
X198000000Y-121820000D03*
%TD*%
D10*
%TO.C,J12*%
X198000000Y-109540000D03*
D11*
X198000000Y-107000000D03*
X198000000Y-104460000D03*
X198000000Y-101920000D03*
X198000000Y-99380000D03*
X198000000Y-96840000D03*
%TD*%
D17*
%TO.C,H1*%
X198400000Y-84000000D03*
X194302944Y-85697056D03*
X197697056Y-85697056D03*
X196000000Y-81600000D03*
D18*
X196000000Y-84000000D03*
D17*
X193600000Y-84000000D03*
X197697056Y-82302944D03*
X194302944Y-82302944D03*
X196000000Y-86400000D03*
%TD*%
D10*
%TO.C,J19*%
X109500000Y-100000000D03*
D11*
X109500000Y-102540000D03*
X109500000Y-105080000D03*
X109500000Y-107620000D03*
%TD*%
D10*
%TO.C,J14*%
X117500000Y-122000000D03*
D11*
X117500000Y-119460000D03*
X117500000Y-116920000D03*
%TD*%
D12*
%TO.C,J17*%
X166000000Y-84000000D03*
D13*
X160920000Y-84000000D03*
%TD*%
D21*
%TO.C,BZ1*%
X184900000Y-109100000D03*
D22*
X190274012Y-103725988D03*
%TD*%
D10*
%TO.C,J20*%
X193175000Y-91100000D03*
D11*
X195715000Y-91100000D03*
X198255000Y-91100000D03*
%TD*%
D18*
%TO.C,H2*%
X103900000Y-83900000D03*
D17*
X105597056Y-85597056D03*
X105597056Y-82202944D03*
X102202944Y-82202944D03*
X102202944Y-85597056D03*
X101500000Y-83900000D03*
X103900000Y-81500000D03*
X106300000Y-83900000D03*
X103900000Y-86300000D03*
%TD*%
D10*
%TO.C,J13*%
X121500000Y-127475000D03*
D11*
X121500000Y-130015000D03*
X121500000Y-132555000D03*
%TD*%
D10*
%TO.C,J16*%
X109500000Y-127475000D03*
D11*
X109500000Y-130015000D03*
X109500000Y-132555000D03*
%TD*%
D23*
%TO.C,K1*%
X186150000Y-94050000D03*
X186150000Y-82050000D03*
D13*
X188100000Y-88100000D03*
X173900000Y-94100000D03*
X173950000Y-82050000D03*
%TD*%
D10*
%TO.C,J11*%
X114000000Y-122000000D03*
D11*
X114000000Y-119460000D03*
X114000000Y-116920000D03*
%TD*%
D19*
%TO.C,J4*%
X128500000Y-128450000D03*
X131000000Y-128450000D03*
X133000000Y-128450000D03*
X135500000Y-128450000D03*
X136000000Y-126950000D03*
X134000000Y-126950000D03*
X132000000Y-126950000D03*
X130000000Y-126950000D03*
X128000000Y-126950000D03*
D24*
X125500000Y-129950000D03*
X138500000Y-129950000D03*
%TD*%
D19*
%TO.C,J2*%
X160000000Y-128350000D03*
X162500000Y-128350000D03*
X164500000Y-128350000D03*
X167000000Y-128350000D03*
X167500000Y-126850000D03*
X165500000Y-126850000D03*
X163500000Y-126850000D03*
X161500000Y-126850000D03*
X159500000Y-126850000D03*
D24*
X170000000Y-129850000D03*
X157000000Y-129850000D03*
%TD*%
D10*
%TO.C,J8*%
X102000000Y-113500000D03*
D11*
X102000000Y-116040000D03*
X102000000Y-118580000D03*
X102000000Y-121120000D03*
X102000000Y-123660000D03*
X102000000Y-126200000D03*
%TD*%
D10*
%TO.C,J7*%
X110500000Y-122000000D03*
D11*
X110500000Y-119460000D03*
X110500000Y-116920000D03*
%TD*%
D25*
%TO.C,F2*%
X133600000Y-131800000D03*
X136400000Y-131800000D03*
%TD*%
D26*
%TO.C,D2*%
X135075000Y-98000000D03*
X137925000Y-98000000D03*
%TD*%
D27*
%TO.C,C6*%
X150950000Y-115000000D03*
X148000000Y-115000000D03*
%TD*%
D28*
%TO.C,C7*%
X143025000Y-115000000D03*
X145975000Y-115000000D03*
%TD*%
D25*
%TO.C,F1*%
X165450000Y-132650000D03*
X168250000Y-132650000D03*
%TD*%
D29*
%TO.C,Q1*%
X179012500Y-98600000D03*
X179012500Y-96700000D03*
X180887500Y-97650000D03*
%TD*%
D28*
%TO.C,C3*%
X190525000Y-94400000D03*
X193475000Y-94400000D03*
%TD*%
D30*
%TO.C,U1*%
X125775000Y-98300000D03*
X125775000Y-100000000D03*
X125775000Y-101700000D03*
D31*
X116625000Y-101700000D03*
D30*
X125775000Y-103400000D03*
X125775000Y-105100000D03*
%TD*%
D32*
%TO.C,R3*%
X188637500Y-97575000D03*
X191562500Y-97575000D03*
%TD*%
%TO.C,R5*%
X170537500Y-113700000D03*
X173462500Y-113700000D03*
%TD*%
D33*
%TO.C,R17*%
X155400000Y-117137500D03*
X155400000Y-120062500D03*
%TD*%
D32*
%TO.C,R1*%
X144037500Y-90000000D03*
X146962500Y-90000000D03*
%TD*%
D34*
%TO.C,C5*%
X173000000Y-117525000D03*
X173000000Y-120475000D03*
%TD*%
D35*
%TO.C,C2*%
X163800000Y-107000000D03*
X163800000Y-97200000D03*
%TD*%
D36*
%TO.C,R4*%
X179862500Y-103000000D03*
X176937500Y-103000000D03*
%TD*%
D34*
%TO.C,C4*%
X140000000Y-119025000D03*
X140000000Y-121975000D03*
%TD*%
D36*
%TO.C,R2*%
X153962500Y-90000000D03*
X151037500Y-90000000D03*
%TD*%
%TO.C,R16*%
X135962500Y-110000000D03*
X133037500Y-110000000D03*
%TD*%
D37*
%TO.C,C1*%
X139000000Y-85800000D03*
X139000000Y-91200000D03*
%TD*%
D26*
%TO.C,D3*%
X133825000Y-85600000D03*
X130975000Y-85600000D03*
%TD*%
D38*
%TO.C,D1*%
X163250000Y-132600000D03*
X159950000Y-132600000D03*
%TD*%
D36*
%TO.C,R18*%
X174462500Y-106500000D03*
X171537500Y-106500000D03*
%TD*%
D39*
%TO.C,D6*%
X182000000Y-89900000D03*
X182000000Y-86100000D03*
%TD*%
D38*
%TO.C,D8*%
X131000000Y-131800000D03*
X127700000Y-131800000D03*
%TD*%
D40*
%TO.C,L1*%
X145500000Y-95775000D03*
X145500000Y-107025000D03*
%TD*%
D36*
%TO.C,R7*%
X173462500Y-123000000D03*
X170537500Y-123000000D03*
%TD*%
M02*
