M48
; DRILL file {KiCad (6.0.2)} date Sun May 29 08:20:41 2022
; FORMAT={-:-/ absolute / inch / decimal}
; #@! TF.CreationDate,2022-05-29T08:20:41+05:30
; #@! TF.GenerationSoftware,Kicad,Pcbnew,(6.0.2)
; #@! TF.FileFunction,MixedPlating,1,4
FMAT,2
INCH
; #@! TA.AperFunction,Plated,PTH,ViaDrill
T1C0.0157
; #@! TA.AperFunction,Plated,PTH,ComponentDrill
T2C0.0197
; #@! TA.AperFunction,Plated,PTH,ComponentDrill
T3C0.0236
; #@! TA.AperFunction,Plated,PTH,ComponentDrill
T4C0.0276
; #@! TA.AperFunction,Plated,PTH,ComponentDrill
T5C0.0394
; #@! TA.AperFunction,Plated,PTH,ComponentDrill
T6C0.0433
; #@! TA.AperFunction,Plated,PTH,ComponentDrill
T7C0.0512
; #@! TA.AperFunction,Plated,PTH,ComponentDrill
T8C0.0598
; #@! TA.AperFunction,Plated,PTH,ComponentDrill
T9C0.1260
; #@! TA.AperFunction,Plated,PTH,ComponentDrill
T10C0.1772
%
G90
G05
T1
X4.1457Y-3.7677
X4.2638Y-3.5315
X4.3346Y-3.5827
X4.5866Y-3.7283
X4.6122Y-3.5512
X4.7953Y-3.563
X4.8661Y-3.811
X4.9075Y-3.8071
X4.937Y-3.7362
X4.9409Y-3.6811
X4.9606Y-4.5709
X4.9646Y-4.4921
X5.0069Y-3.747
X5.0965Y-4.3799
X5.1063Y-3.4646
X5.1393Y-4.6088
X5.1535Y-3.878
X5.1535Y-3.9921
X5.1555Y-4.2835
X5.185Y-3.5
X5.2165Y-4.7736
X5.2205Y-3.9843
X5.2835Y-3.7008
X5.3081Y-4.2136
X5.4173Y-4.8031
X5.4252Y-4.3307
X5.4488Y-5.2244
X5.4931Y-4.2136
X5.5591Y-4.0394
X5.6132Y-3.5305
X5.874Y-3.5472
X6.0118Y-4.5276
X6.0394Y-4.685
X6.1083Y-3.8425
X6.1457Y-3.5256
X6.185Y-4.5945
X6.189Y-3.7441
X6.19Y-4.2136
X6.1929Y-4.3898
X6.248Y-3.5778
X6.2815Y-4.3287
X6.3189Y-3.7244
X6.3386Y-4.3543
X6.3425Y-4.0846
X6.3445Y-3.9114
X6.3839Y-4.0846
X6.3947Y-4.0069
X6.4272Y-4.7736
X6.4331Y-3.5157
X6.5157Y-4.0354
X6.5177Y-4.0917
X6.5295Y-3.9596
X6.5394Y-3.5197
X6.5394Y-4.2618
X6.5413Y-4.3445
X6.5965Y-4.2974
X6.6276Y-4.139
X6.6457Y-4.5315
X6.6476Y-4.4174
X6.6496Y-4.4626
X6.6929Y-3.9291
X6.6929Y-4.7756
X6.6958Y-4.276
X6.6988Y-5.2362
X6.792Y-4.1047
X6.7992Y-3.8484
X6.8388Y-4.2916
X6.8661Y-4.1299
X6.8858Y-4.811
X6.9157Y-4.0557
X6.9291Y-4.4744
X6.9724Y-4.7559
X7.2805Y-3.8996
X7.5276Y-3.9272
T2
X3.9961Y-3.3031
X4.0Y-5.1575
X4.0237Y-3.2363
X4.0237Y-3.37
X4.0277Y-5.0907
X4.0277Y-5.2243
X4.0906Y-3.2087
X4.0906Y-3.3976
X4.0945Y-5.063
X4.0945Y-5.252
X4.1574Y-3.2363
X4.1574Y-3.37
X4.1613Y-5.0907
X4.1613Y-5.2243
X4.185Y-3.3031
X4.189Y-5.1575
X7.622Y-3.3071
X7.622Y-5.1575
X7.6497Y-3.2403
X7.6497Y-3.3739
X7.6497Y-5.0907
X7.6497Y-5.2243
X7.7165Y-3.2126
X7.7165Y-3.4016
X7.7165Y-5.063
X7.7165Y-5.252
X7.7833Y-3.2403
X7.7833Y-3.3739
X7.7833Y-5.0907
X7.7833Y-5.2243
X7.811Y-3.3071
X7.811Y-5.1575
T4
X4.0965Y-3.9567
X4.0965Y-4.0551
X4.0965Y-4.1339
X4.0965Y-4.2323
X4.1555Y-3.937
X4.1555Y-4.0157
X4.1555Y-4.0945
X4.1555Y-4.1732
X4.1555Y-4.252
X5.0394Y-4.998
X5.0591Y-5.0571
X5.1181Y-4.998
X5.1575Y-5.0571
X5.1969Y-4.998
X5.2362Y-5.0571
X5.2756Y-4.998
X5.3346Y-5.0571
X5.3543Y-4.998
X6.2795Y-4.9941
X6.2992Y-5.0531
X6.3583Y-4.9941
X6.3976Y-5.0531
X6.437Y-4.9941
X6.4764Y-5.0531
X6.5157Y-4.9941
X6.5748Y-5.0531
X6.5945Y-4.9941
T5
X4.0157Y-3.5236
X4.0157Y-3.6236
X4.0157Y-3.7236
X4.0157Y-4.4685
X4.0157Y-4.5685
X4.0157Y-4.6685
X4.0157Y-4.7685
X4.0157Y-4.8685
X4.0157Y-4.9685
X4.311Y-3.937
X4.311Y-4.037
X4.311Y-4.137
X4.311Y-4.237
X4.311Y-5.0187
X4.311Y-5.1187
X4.311Y-5.2187
X4.3504Y-4.6031
X4.3504Y-4.7031
X4.3504Y-4.8031
X4.4685Y-5.0187
X4.4685Y-5.1187
X4.4685Y-5.2187
X4.4882Y-4.6031
X4.4882Y-4.7031
X4.4882Y-4.8031
X4.626Y-4.6031
X4.626Y-4.7031
X4.626Y-4.8031
X4.626Y-5.0187
X4.626Y-5.1187
X4.626Y-5.2187
X4.7835Y-5.0187
X4.7835Y-5.1187
X4.7835Y-5.2187
X5.1496Y-3.2283
X5.2496Y-3.2283
X5.3496Y-3.2283
X5.4496Y-3.2283
X5.5496Y-3.2283
X5.6496Y-3.2283
X7.2795Y-4.2953
X7.3287Y-3.2303
X7.3287Y-3.7028
X7.4911Y-4.0837
X7.6053Y-3.5866
X7.7053Y-3.5866
X7.7953Y-3.8126
X7.7953Y-3.9126
X7.7953Y-4.0126
X7.7953Y-4.1126
X7.7953Y-4.2126
X7.7953Y-4.3126
X7.7953Y-4.4961
X7.7953Y-4.5961
X7.7953Y-4.6961
X7.7953Y-4.7961
X7.8053Y-3.5866
T6
X5.6909Y-4.6752
X5.6909Y-4.8524
X5.9469Y-4.6752
X5.9469Y-4.8524
T7
X6.8465Y-3.7047
X6.8484Y-3.2303
X7.4055Y-3.4685
T8
X5.8661Y-3.3071
X6.0661Y-3.3071
X6.3354Y-3.3071
X6.5354Y-3.3071
T9
X4.0906Y-3.3031
X4.0945Y-5.1575
X7.7165Y-3.3071
X7.7165Y-5.1575
T10
X4.4559Y-3.3331
X4.7394Y-3.3331
T3
G00X4.0591Y-3.8386
M15
G01X4.0157Y-3.8386
M16
G05
G00X4.0591Y-4.3504
M15
G01X4.0157Y-4.3504
M16
G05
G00X4.9409Y-5.0945
M15
G01X4.9409Y-5.1378
M16
G05
G00X5.4528Y-5.0945
M15
G01X5.4528Y-5.1378
M16
G05
G00X6.1811Y-5.0906
M15
G01X6.1811Y-5.1339
M16
G05
G00X6.6929Y-5.0906
M15
G01X6.6929Y-5.1339
M16
G05
T0
M30
